<svg width="101" height="76" viewBox="0 0 101 76" fill="none" xmlns="http://www.w3.org/2000/svg">
<path d="M4.34871 49.4819L11.0865 36.1144C12.8992 32.5194 15.9946 29.7277 19.7753 28.3505C21.0041 27.9049 22.4151 27.4863 24.0286 27.1488C32.0559 25.4609 41.1228 25.282 45.1229 21.8153C49.1231 18.3485 59.439 2.69233 63.169 1.54462C66.8991 0.396906 119.022 1.41972 119.022 1.41972C119.022 1.41972 126.334 1.27794 127.627 7.01314C128.92 12.7483 137.473 47.9561 137.473 47.9561V53.6643L4.95295 55.1766L2.60352 51.7942L4.34871 49.4887V49.4819Z" fill="#FFEDE6" stroke="#111111" stroke-width="0.5" stroke-linecap="round" stroke-linejoin="round"/>
<path d="M97.9212 59.4299H3.2146C3.2146 59.4299 1.00018 59.197 1.00018 56.8543V52.4153C1.00018 52.4153 0.915794 49.6507 4.35218 49.4819V49.7486C4.35218 50.3427 4.83152 50.822 5.42563 50.822H134.962C136.498 50.822 137.703 49.4684 137.477 47.9494C137.477 47.9291 137.47 47.9089 137.467 47.8852C137.467 47.8852 139.516 47.6793 139.651 49.3199C139.728 50.2448 139.718 53.3436 139.695 55.8686C139.678 57.8433 138.068 59.4366 136.093 59.4366L97.9212 59.4299Z" fill="#111111" stroke="#111111" stroke-width="0.5" stroke-linecap="round" stroke-linejoin="round"/>
<path d="M55.1859 59.4301C55.1859 59.4301 58.278 59.7373 57.8898 56.5507C57.505 53.3641 50.325 43.5039 38.0175 43.5039C25.7099 43.5039 19.1106 55.0418 18.53 56.6824C17.9494 58.3263 20.849 59.4301 20.849 59.4301H55.1859Z" fill="#FFEDE6" stroke="#111111" stroke-width="0.5" stroke-linecap="round" stroke-linejoin="round"/>
<path d="M55.1851 59.4302C55.1851 59.4302 52.0863 46.3936 38.5331 46.3936C24.98 46.3936 20.8516 59.4302 20.8516 59.4302H55.1885H55.1851Z" fill="#111111" stroke="#111111" stroke-width="0.5" stroke-linecap="round" stroke-linejoin="round"/>
<path d="M38.533 75.3999C46.542 75.3999 53.0347 68.9072 53.0347 60.8982C53.0347 52.8891 46.542 46.3965 38.533 46.3965C30.5239 46.3965 24.0312 52.8891 24.0312 60.8982C24.0312 68.9072 30.5239 75.3999 38.533 75.3999Z" fill="#FFEDE6" stroke="#111111" stroke-width="0.5" stroke-linecap="round" stroke-linejoin="round"/>
<path d="M38.5348 68.4797C42.722 68.4797 46.1164 65.0853 46.1164 60.8981C46.1164 56.7108 42.722 53.3164 38.5348 53.3164C34.3475 53.3164 30.9531 56.7108 30.9531 60.8981C30.9531 65.0853 34.3475 68.4797 38.5348 68.4797Z" fill="#111111" stroke="#111111" stroke-width="0.5" stroke-linecap="round" stroke-linejoin="round"/>
<path d="M132.258 59.4301C132.258 59.4301 135.35 59.7373 134.962 56.5507C134.577 53.3641 127.397 43.5039 115.09 43.5039C102.782 43.5039 96.1829 55.0418 95.6022 56.6824C95.0216 58.3263 97.9213 59.4301 97.9213 59.4301H132.258Z" fill="#FFEDE6" stroke="#111111" stroke-width="0.5" stroke-linecap="round" stroke-linejoin="round"/>
<path d="M132.257 59.4302C132.257 59.4302 129.159 46.3936 115.605 46.3936C102.052 46.3936 97.9238 59.4302 97.9238 59.4302H132.261H132.257Z" fill="#111111" stroke="#111111" stroke-width="0.5" stroke-linecap="round" stroke-linejoin="round"/>
<path d="M115.607 75.3999C123.616 75.3999 130.109 68.9072 130.109 60.8982C130.109 52.8891 123.616 46.3965 115.607 46.3965C107.598 46.3965 101.105 52.8891 101.105 60.8982C101.105 68.9072 107.598 75.3999 115.607 75.3999Z" fill="#FFEDE6" stroke="#111111" stroke-width="0.5" stroke-linecap="round" stroke-linejoin="round"/>
<path d="M16.8968 36.1514L12.3667 46.7441C8.73451 47.4057 5.64581 46.9163 5.64581 46.9163C5.64581 46.9163 4.61624 45.6707 6.07451 42.3896C7.53279 39.1051 8.38345 37.9506 8.38345 37.9506C8.38345 37.9506 9.65606 36.1143 11.0873 36.1143H16.8934V36.1514H16.8968Z" fill="#FFEDE6" stroke="#111111" stroke-width="0.5" stroke-linecap="round" stroke-linejoin="round"/>
<path d="M20.5444 39.2705C20.5444 39.2975 20.541 39.3211 20.541 39.3481C20.4195 42.025 18.1713 45.2386 13.9146 46.3964C13.3914 46.5382 12.8716 46.653 12.3652 46.7441L16.8953 36.1514V36.1143H17.4354C19.1705 36.1143 20.595 37.5354 20.5444 39.2705Z" fill="#FFEDE6" stroke="#111111" stroke-width="0.5" stroke-linecap="round" stroke-linejoin="round"/>
<path d="M14.3242 31.7461H36.2928C40.1275 31.7461 43.5639 29.3764 44.9243 25.7948L47.3142 19.5195" stroke="#111111" stroke-width="0.5" stroke-linecap="round" stroke-linejoin="round"/>
<path d="M57.4004 19.5167L66.2682 7.66147C66.8792 6.84457 67.8378 6.36523 68.8607 6.36523H87.5448C89.3305 6.36523 90.7786 7.81338 90.7786 9.59909V26.7135H60.0975L57.4004 19.5167Z" fill="#FFEDE6" stroke="#111111" stroke-width="0.5" stroke-linecap="round" stroke-linejoin="round"/>
<path d="M95.1328 26.713V9.91586C95.1328 7.95462 96.7227 6.36133 98.6873 6.36133H116.48C118.779 6.36133 120.838 7.78922 121.642 9.94287L126.101 21.8791C126.975 24.2184 125.243 26.713 122.745 26.713H95.1362H95.1328Z" fill="#FFEDE6" stroke="#111111" stroke-width="0.5" stroke-linecap="round" stroke-linejoin="round"/>
<path d="M57.4004 28.8467V33.424C57.4004 35.473 58.5549 37.3769 60.4182 38.2275C60.641 38.3288 60.8773 38.4233 61.1305 38.5111C64.047 39.517 66.4606 41.3534 66.4606 43.5003V49.168" stroke="#111111" stroke-width="0.5" stroke-linecap="round" stroke-linejoin="round"/>
<path d="M95.1328 28.8467V49.1713" stroke="#111111" stroke-width="0.5" stroke-linecap="round" stroke-linejoin="round"/>
<path d="M57.3997 19.5166H63.5703C64.5729 19.5166 65.3189 20.4381 65.113 21.4171L63.9788 26.8181C63.675 28.2595 62.2201 29.1473 60.7989 28.7557L56.6874 27.6215C55.7186 27.3548 55.0469 26.4738 55.0469 25.4678V21.8728C55.0469 20.5732 56.1001 19.52 57.3997 19.52V19.5166Z" fill="#FFEDE6" stroke="#111111" stroke-width="0.5" stroke-linecap="round" stroke-linejoin="round"/>
<path d="M83.5859 29.5693H90.7828V30.366C90.7828 31.0141 90.2562 31.5407 89.6081 31.5407H84.764C84.1159 31.5407 83.5893 31.0141 83.5893 30.366V29.5693H83.5859Z" fill="#FFEDE6" stroke="#111111" stroke-width="0.5" stroke-linecap="round" stroke-linejoin="round"/>
</svg>
