<svg width="44" height="44" viewBox="0 0 44 44" fill="none" xmlns="http://www.w3.org/2000/svg">
<rect width="44" height="44" rx="22" fill="#FB7C37"/>
<path d="M14 16.5C14 16.2239 14.2239 16 14.5 16H25.5C25.7761 16 26 16.2239 26 16.5C26 16.7761 25.7761 17 25.5 17H14.5C14.2239 17 14 16.7761 14 16.5ZM14 26.5C14 26.2239 14.2239 26 14.5 26H24.5C24.7761 26 25 26.2239 25 26.5C25 26.7761 24.7761 27 24.5 27H14.5C14.2239 27 14 26.7761 14 26.5ZM14.5 21C14.2239 21 14 21.2239 14 21.5C14 21.7761 14.2239 22 14.5 22H29.5C29.7761 22 30 21.7761 30 21.5C30 21.2239 29.7761 21 29.5 21H14.5Z" fill="white"/>
</svg>
