<svg width="103" height="76" viewBox="0 0 103 76" fill="none" xmlns="http://www.w3.org/2000/svg">
<path d="M6.34871 49.4819L13.0865 36.1144C14.8992 32.5194 17.9946 29.7277 21.7753 28.3505C23.0041 27.9049 24.4151 27.4863 26.0286 27.1488C34.0559 25.4609 43.1228 25.282 47.1229 21.8153C51.1231 18.3485 61.439 2.69233 65.169 1.54462C68.8991 0.396906 121.022 1.41972 121.022 1.41972C121.022 1.41972 128.334 1.27794 129.627 7.01314C130.92 12.7483 139.473 47.9561 139.473 47.9561V53.6643L6.95295 55.1766L4.60352 51.7942L6.34871 49.4887V49.4819Z" fill="#FFEDE6" stroke="#111111" stroke-width="0.5" stroke-linecap="round" stroke-linejoin="round"/>
<path d="M99.9212 59.4299H5.2146C5.2146 59.4299 3.00018 59.197 3.00018 56.8543V52.4153C3.00018 52.4153 2.91579 49.6507 6.35218 49.4819V49.7486C6.35218 50.3427 6.83152 50.822 7.42563 50.822H136.962C138.498 50.822 139.703 49.4684 139.477 47.9494C139.477 47.9291 139.47 47.9089 139.467 47.8852C139.467 47.8852 141.516 47.6793 141.651 49.3199C141.728 50.2448 141.718 53.3436 141.695 55.8686C141.678 57.8433 140.068 59.4366 138.093 59.4366L99.9212 59.4299Z" fill="#111111" stroke="#111111" stroke-width="0.5" stroke-linecap="round" stroke-linejoin="round"/>
<path d="M57.1859 59.4301C57.1859 59.4301 60.278 59.7373 59.8898 56.5507C59.505 53.3641 52.325 43.5039 40.0175 43.5039C27.7099 43.5039 21.1106 55.0418 20.53 56.6824C19.9494 58.3263 22.849 59.4301 22.849 59.4301H57.1859Z" fill="#FFEDE6" stroke="#111111" stroke-width="0.5" stroke-linecap="round" stroke-linejoin="round"/>
<path d="M57.1851 59.4302C57.1851 59.4302 54.0863 46.3936 40.5331 46.3936C26.98 46.3936 22.8516 59.4302 22.8516 59.4302H57.1885H57.1851Z" fill="#111111" stroke="#111111" stroke-width="0.5" stroke-linecap="round" stroke-linejoin="round"/>
<path d="M40.533 75.3999C48.542 75.3999 55.0347 68.9072 55.0347 60.8982C55.0347 52.8891 48.542 46.3965 40.533 46.3965C32.5239 46.3965 26.0312 52.8891 26.0312 60.8982C26.0312 68.9072 32.5239 75.3999 40.533 75.3999Z" fill="#FFEDE6" stroke="#111111" stroke-width="0.5" stroke-linecap="round" stroke-linejoin="round"/>
<path d="M40.5348 68.4797C44.722 68.4797 48.1164 65.0853 48.1164 60.8981C48.1164 56.7108 44.722 53.3164 40.5348 53.3164C36.3475 53.3164 32.9531 56.7108 32.9531 60.8981C32.9531 65.0853 36.3475 68.4797 40.5348 68.4797Z" fill="#111111" stroke="#111111" stroke-width="0.5" stroke-linecap="round" stroke-linejoin="round"/>
<path d="M134.258 59.4301C134.258 59.4301 137.35 59.7373 136.962 56.5507C136.577 53.3641 129.397 43.5039 117.09 43.5039C104.782 43.5039 98.1829 55.0418 97.6022 56.6824C97.0216 58.3263 99.9213 59.4301 99.9213 59.4301H134.258Z" fill="#FFEDE6" stroke="#111111" stroke-width="0.5" stroke-linecap="round" stroke-linejoin="round"/>
<path d="M134.257 59.4302C134.257 59.4302 131.159 46.3936 117.605 46.3936C104.052 46.3936 99.9238 59.4302 99.9238 59.4302H134.261H134.257Z" fill="#111111" stroke="#111111" stroke-width="0.5" stroke-linecap="round" stroke-linejoin="round"/>
<path d="M117.607 75.3999C125.616 75.3999 132.109 68.9072 132.109 60.8982C132.109 52.8891 125.616 46.3965 117.607 46.3965C109.598 46.3965 103.105 52.8891 103.105 60.8982C103.105 68.9072 109.598 75.3999 117.607 75.3999Z" fill="#FFEDE6" stroke="#111111" stroke-width="0.5" stroke-linecap="round" stroke-linejoin="round"/>
<path d="M18.8968 36.1514L14.3667 46.7441C10.7345 47.4057 7.64581 46.9163 7.64581 46.9163C7.64581 46.9163 6.61624 45.6707 8.07451 42.3896C9.53279 39.1051 10.3834 37.9506 10.3834 37.9506C10.3834 37.9506 11.6561 36.1143 13.0873 36.1143H18.8934V36.1514H18.8968Z" fill="#FFEDE6" stroke="#111111" stroke-width="0.5" stroke-linecap="round" stroke-linejoin="round"/>
<path d="M22.5444 39.2705C22.5444 39.2975 22.541 39.3211 22.541 39.3481C22.4195 42.025 20.1713 45.2386 15.9146 46.3964C15.3914 46.5382 14.8716 46.653 14.3652 46.7441L18.8953 36.1514V36.1143H19.4354C21.1705 36.1143 22.595 37.5354 22.5444 39.2705Z" fill="#FFEDE6" stroke="#111111" stroke-width="0.5" stroke-linecap="round" stroke-linejoin="round"/>
<path d="M16.3242 31.7461H38.2928C42.1275 31.7461 45.5639 29.3764 46.9243 25.7948L49.3142 19.5195" stroke="#111111" stroke-width="0.5" stroke-linecap="round" stroke-linejoin="round"/>
<path d="M59.4004 19.5167L68.2682 7.66147C68.8792 6.84457 69.8378 6.36523 70.8607 6.36523H89.5448C91.3305 6.36523 92.7786 7.81338 92.7786 9.59909V26.7135H62.0975L59.4004 19.5167Z" fill="#FFEDE6" stroke="#111111" stroke-width="0.5" stroke-linecap="round" stroke-linejoin="round"/>
<path d="M97.1328 26.713V9.91586C97.1328 7.95462 98.7227 6.36133 100.687 6.36133H118.48C120.779 6.36133 122.838 7.78922 123.642 9.94287L128.101 21.8791C128.975 24.2184 127.243 26.713 124.745 26.713H97.1362H97.1328Z" fill="#FFEDE6" stroke="#111111" stroke-width="0.5" stroke-linecap="round" stroke-linejoin="round"/>
<path d="M59.4004 28.8467V33.424C59.4004 35.473 60.5549 37.3769 62.4182 38.2275C62.641 38.3288 62.8773 38.4233 63.1305 38.5111C66.047 39.517 68.4606 41.3534 68.4606 43.5003V49.168" stroke="#111111" stroke-width="0.5" stroke-linecap="round" stroke-linejoin="round"/>
<path d="M97.1328 28.8467V49.1713" stroke="#111111" stroke-width="0.5" stroke-linecap="round" stroke-linejoin="round"/>
<path d="M59.3997 19.5166H65.5703C66.5729 19.5166 67.3189 20.4381 67.113 21.4171L65.9788 26.8181C65.675 28.2595 64.2201 29.1473 62.7989 28.7557L58.6874 27.6215C57.7186 27.3548 57.0469 26.4738 57.0469 25.4678V21.8728C57.0469 20.5732 58.1001 19.52 59.3997 19.52V19.5166Z" fill="#FFEDE6" stroke="#111111" stroke-width="0.5" stroke-linecap="round" stroke-linejoin="round"/>
<path d="M85.5859 29.5693H92.7828V30.366C92.7828 31.0141 92.2562 31.5407 91.6081 31.5407H86.764C86.1159 31.5407 85.5893 31.0141 85.5893 30.366V29.5693H85.5859Z" fill="#FFEDE6" stroke="#111111" stroke-width="0.5" stroke-linecap="round" stroke-linejoin="round"/>
<path d="M14 2L14.5387 4.39157C14.9957 6.42015 16.5798 8.00431 18.6084 8.46127L21 9L18.6084 9.53873C16.5798 9.99569 14.9957 11.5798 14.5387 13.6084L14 16L13.4613 13.6084C13.0043 11.5798 11.4202 9.99569 9.3916 9.53873L7 9L9.3916 8.46127C11.4201 8.00431 13.0043 6.42015 13.4613 4.39158L14 2Z" stroke="#111111" stroke-width="0.5" stroke-linejoin="round"/>
<path d="M6 12L6.38481 13.7083C6.71121 15.1572 7.84275 16.2888 9.2917 16.6152L11 17L9.2917 17.3848C7.84275 17.7112 6.71121 18.8427 6.38481 20.2917L6 22L5.61519 20.2917C5.28879 18.8427 4.15725 17.7112 2.70827 17.3848L1 17L2.70827 16.6152C4.15725 16.2888 5.28879 15.1573 5.61519 13.7083L6 12Z" stroke="#111111" stroke-width="0.5" stroke-linejoin="round"/>
<path d="M17 17.5L17.2694 18.6958C17.4978 19.71 18.2899 20.5022 19.3042 20.7306L20.5 21L19.3042 21.2694C18.2899 21.4978 17.4978 22.2899 17.2694 23.3042L17 24.5L16.7306 23.3042C16.5022 22.2899 15.7101 21.4978 14.6958 21.2694L13.5 21L14.6958 20.7306C15.7101 20.5022 16.5022 19.7101 16.7306 18.6958L17 17.5Z" stroke="#111111" stroke-width="0.5" stroke-linejoin="round"/>
</svg>
