<svg width="160" height="90" viewBox="0 0 160 90" fill="none" xmlns="http://www.w3.org/2000/svg">
<path d="M19.1854 61.6024L27.6076 44.893C29.8735 40.3992 33.7428 36.9097 38.4687 35.1881C40.0046 34.6311 41.7684 34.1079 43.7853 33.6859C53.8194 31.5762 65.153 31.3525 70.1532 27.0191C75.1533 22.6856 88.0482 3.11542 92.7108 1.68077C97.3734 0.246133 162.527 1.52465 162.527 1.52465C162.527 1.52465 171.667 1.34743 173.283 8.51642C174.899 15.6854 185.591 59.6952 185.591 59.6952V66.8304L19.9407 68.7208L17.0039 64.4928L19.1854 61.6108V61.6024Z" fill="#F6EFF3" stroke="#AFA9AE" stroke-width="0.5" stroke-linecap="round" stroke-linejoin="round"/>
<path d="M136.152 74.0378H17.7682C17.7682 74.0378 15.0002 73.7467 15.0002 70.8184V65.2697C15.0002 65.2697 14.8947 61.8139 19.1902 61.6029V61.9362C19.1902 62.6789 19.7894 63.278 20.532 63.278H182.453C184.372 63.278 185.879 61.586 185.596 59.6872C185.596 59.6619 185.588 59.6366 185.583 59.607C185.583 59.607 188.145 59.3497 188.313 61.4003C188.41 62.5565 188.398 66.43 188.368 69.5862C188.347 72.0547 186.334 74.0463 183.866 74.0463L136.152 74.0378Z" fill="#AFA9AE" stroke="#AFA9AE" stroke-width="0.5" stroke-linecap="round" stroke-linejoin="round"/>
<path d="M82.7324 74.0376C82.7324 74.0376 86.5975 74.4216 86.1123 70.4384C85.6312 66.4551 76.6563 54.1299 61.2719 54.1299C45.8874 54.1299 37.6382 68.5523 36.9125 70.603C36.1867 72.6579 39.8113 74.0376 39.8113 74.0376H82.7324Z" fill="#F6EFF3" stroke="#AFA9AE" stroke-width="0.5" stroke-linecap="round" stroke-linejoin="round"/>
<path d="M82.7333 74.0371C82.7333 74.0371 78.8598 57.7412 61.9183 57.7412C44.9769 57.7412 39.8164 74.0371 39.8164 74.0371H82.7375H82.7333Z" fill="#AFA9AE" stroke="#AFA9AE" stroke-width="0.5" stroke-linecap="round" stroke-linejoin="round"/>
<path d="M61.9162 94.0004C71.9275 94.0004 80.0433 85.8846 80.0433 75.8732C80.0433 65.8619 71.9275 57.7461 61.9162 57.7461C51.9049 57.7461 43.7891 65.8619 43.7891 75.8732C43.7891 85.8846 51.9049 94.0004 61.9162 94.0004Z" fill="#F6EFF3" stroke="#AFA9AE" stroke-width="0.5" stroke-linecap="round" stroke-linejoin="round"/>
<path d="M61.9185 85.3497C67.1525 85.3497 71.3956 81.1066 71.3956 75.8726C71.3956 70.6385 67.1525 66.3955 61.9185 66.3955C56.6844 66.3955 52.4414 70.6385 52.4414 75.8726C52.4414 81.1066 56.6844 85.3497 61.9185 85.3497Z" fill="#AFA9AE" stroke="#AFA9AE" stroke-width="0.5" stroke-linecap="round" stroke-linejoin="round"/>
<path d="M179.072 74.0376C179.072 74.0376 182.937 74.4216 182.452 70.4384C181.971 66.4551 172.996 54.1299 157.612 54.1299C142.227 54.1299 133.978 68.5523 133.252 70.603C132.527 72.6579 136.151 74.0376 136.151 74.0376H179.072Z" fill="#F6EFF3" stroke="#AFA9AE" stroke-width="0.5" stroke-linecap="round" stroke-linejoin="round"/>
<path d="M179.073 74.0371C179.073 74.0371 175.2 57.7412 158.258 57.7412C141.317 57.7412 136.156 74.0371 136.156 74.0371H179.077H179.073Z" fill="#AFA9AE" stroke="#AFA9AE" stroke-width="0.5" stroke-linecap="round" stroke-linejoin="round"/>
<path d="M158.258 94.0004C168.269 94.0004 176.385 85.8846 176.385 75.8732C176.385 65.8619 168.269 57.7461 158.258 57.7461C148.247 57.7461 140.131 65.8619 140.131 75.8732C140.131 85.8846 148.247 94.0004 158.258 94.0004Z" fill="#F6EFF3" stroke="#AFA9AE" stroke-width="0.5" stroke-linecap="round" stroke-linejoin="round"/>
<path d="M158.258 85.3497C163.492 85.3497 167.735 81.1066 167.735 75.8726C167.735 70.6385 163.492 66.3955 158.258 66.3955C153.024 66.3955 148.781 70.6385 148.781 75.8726C148.781 81.1066 153.024 85.3497 158.258 85.3497Z" fill="#AFA9AE" stroke="#AFA9AE" stroke-width="0.5" stroke-linecap="round" stroke-linejoin="round"/>
<path d="M34.87 44.939L29.2074 58.1799C24.6672 59.0069 20.8063 58.3951 20.8063 58.3951C20.8063 58.3951 19.5193 56.8381 21.3422 52.7367C23.165 48.6311 24.2283 47.188 24.2283 47.188C24.2283 47.188 25.8191 44.8926 27.6082 44.8926H34.8658V44.939H34.87Z" fill="#F6EFF3" stroke="#AFA9AE" stroke-width="0.5" stroke-linecap="round" stroke-linejoin="round"/>
<path d="M39.431 48.8379C39.431 48.8716 39.4267 48.9011 39.4267 48.9349C39.2748 52.281 36.4646 56.298 31.1438 57.7453C30.4898 57.9225 29.84 58.066 29.207 58.1799L34.8696 44.939V44.8926H35.5448C37.7136 44.8926 39.4943 46.669 39.431 48.8379Z" fill="#F6EFF3" stroke="#AFA9AE" stroke-width="0.5" stroke-linecap="round" stroke-linejoin="round"/>
<path d="M31.6543 39.4326H59.115C63.9084 39.4326 68.2039 36.4705 69.9044 31.9935L72.8918 24.1494" stroke="#AFA9AE" stroke-width="0.5" stroke-linecap="round" stroke-linejoin="round"/>
<path d="M85.5 24.1454L96.5847 9.32635C97.3485 8.30523 98.5468 7.70605 99.8253 7.70605H123.18C125.413 7.70605 127.223 9.51624 127.223 11.7484V33.1414H88.8714L85.5 24.1454Z" fill="#F6EFF3" stroke="#AFA9AE" stroke-width="0.5" stroke-linecap="round" stroke-linejoin="round"/>
<path d="M132.666 33.1417V12.1453C132.666 9.69377 134.654 7.70215 137.109 7.70215H159.351C162.224 7.70215 164.798 9.48701 165.802 12.1791L171.376 27.0994C172.469 30.0235 170.305 33.1417 167.182 33.1417H132.67H132.666Z" fill="#F6EFF3" stroke="#AFA9AE" stroke-width="0.5" stroke-linecap="round" stroke-linejoin="round"/>
<path d="M85.5 35.8086V41.5303C85.5 44.0915 86.9431 46.4714 89.2723 47.5347C89.5508 47.6613 89.8461 47.7794 90.1626 47.8891C93.8083 49.1466 96.8252 51.442 96.8252 54.1256V61.2102" stroke="#AFA9AE" stroke-width="0.5" stroke-linecap="round" stroke-linejoin="round"/>
<path d="M132.666 35.8086V61.2144" stroke="#AFA9AE" stroke-width="0.5" stroke-linecap="round" stroke-linejoin="round"/>
<path d="M85.4996 24.1455H93.2129C94.4661 24.1455 95.3986 25.2974 95.1413 26.5211L93.7235 33.2724C93.3437 35.0741 91.5251 36.1838 89.7487 35.6944L84.6093 34.2766C83.3983 33.9433 82.5586 32.842 82.5586 31.5846V27.0907C82.5586 25.4662 83.8751 24.1497 85.4996 24.1497V24.1455Z" fill="#F6EFF3" stroke="#AFA9AE" stroke-width="0.5" stroke-linecap="round" stroke-linejoin="round"/>
<path d="M118.23 36.7109H127.227V37.7067C127.227 38.5169 126.568 39.1752 125.758 39.1752H119.703C118.893 39.1752 118.235 38.5169 118.235 37.7067V36.7109H118.23Z" fill="#F6EFF3" stroke="#AFA9AE" stroke-width="0.5" stroke-linecap="round" stroke-linejoin="round"/>
<path d="M11.7443 100.748C11.0337 100.897 10.2483 100.785 9.57505 100.336C8.26605 99.4763 7.89205 97.6811 8.75225 96.3721L26.5173 69.3319C27.3775 68.0229 29.1727 67.6489 30.4817 68.5091C31.7907 69.3693 32.1647 71.1645 31.3045 72.4735L13.5395 99.5137C13.1281 100.187 12.4923 100.598 11.7443 100.748Z" fill="#F6EFF3"/>
<path d="M11.1831 101.009C10.5847 101.009 10.0237 100.822 9.50011 100.523C8.82691 100.074 8.34071 99.4011 8.19111 98.5783C8.04151 97.7555 8.19111 96.9701 8.63991 96.2969L26.4049 69.2567C26.8537 68.5835 27.5269 68.0973 28.3497 67.9477C29.1725 67.7981 29.9579 67.9477 30.6311 68.3965C31.3043 68.8453 31.7905 69.5185 31.9401 70.3413C32.0897 71.1267 31.9401 71.9495 31.4913 72.6227L13.7263 99.6255C13.2775 100.299 12.6043 100.785 11.7815 100.934C11.5945 100.972 11.3701 101.009 11.1831 101.009ZM28.9481 68.2469C28.7611 68.2469 28.5741 68.2469 28.3871 68.2843C27.6765 68.4339 27.0781 68.8453 26.7041 69.4437L8.93911 96.4839C8.52771 97.0823 8.41551 97.7929 8.56511 98.5035C8.71471 99.2141 9.12611 99.8125 9.72451 100.186C10.3229 100.56 11.0335 100.71 11.7441 100.56C12.4547 100.411 13.0531 99.9995 13.4271 99.4011L31.1921 72.3609C31.6035 71.7625 31.7157 71.0519 31.5661 70.3413C31.4165 69.6307 31.0051 69.0323 30.4067 68.6583C29.9579 68.3965 29.4343 68.2469 28.9481 68.2469Z" fill="#AFA9AE"/>
<path d="M5.3498 112.341C4.2652 112.566 3.1058 112.379 2.1334 111.743C0.1512 110.434 -0.409802 107.779 0.899199 105.796L19.9358 76.774C21.2448 74.7918 23.9002 74.2308 25.8824 75.5398C27.8646 76.8488 28.4256 79.5042 27.1166 81.4864L8.0426 110.509C7.4442 111.481 6.4344 112.117 5.3498 112.341Z" fill="#F6EFF3"/>
<path d="M4.48851 112.603C3.62831 112.603 2.7681 112.342 2.0201 111.855C-0.0368972 110.509 -0.635295 107.704 0.748505 105.647L19.7851 76.6246C21.1315 74.5676 23.9365 73.9692 25.9935 75.353C28.0505 76.7368 28.6489 79.5044 27.2651 81.5614L8.1911 110.584C7.5179 111.594 6.5081 112.267 5.3487 112.529C5.0869 112.566 4.78771 112.603 4.48851 112.603ZM23.5625 75.0164C22.2161 75.0164 20.9071 75.6522 20.1217 76.8864L1.0851 105.909C-0.149097 107.816 0.374505 110.359 2.2819 111.594C3.2169 112.192 4.3015 112.416 5.3861 112.192C6.4707 111.968 7.3683 111.332 8.0041 110.434L27.0781 81.4118C28.3123 79.5044 27.7887 76.9612 25.9187 75.727C25.0959 75.2408 24.3105 75.0164 23.5625 75.0164Z" fill="#AFA9AE"/>
<path d="M49.93 77.8214C34.4838 81.0378 19.2994 71.0519 16.083 55.6057C12.8666 40.1595 22.8524 24.9752 38.2986 21.7588C53.7448 18.5424 68.9292 28.5282 72.1456 43.9744C75.362 59.458 65.4136 74.6423 49.93 77.8214ZM39.4954 27.4062C27.116 29.9494 19.1498 42.1044 21.7304 54.4464C24.2736 66.7884 36.4286 74.792 48.7706 72.2113C61.1126 69.6308 69.1162 57.5131 66.5356 45.1337C63.9924 32.7917 51.8748 24.8256 39.4954 27.4062Z" fill="#F6EFF3"/>
<path d="M44.0952 78.6442C38.5226 78.6442 33.0996 77.036 28.3124 73.8944C21.8796 69.6682 17.4664 63.198 15.8956 55.6806C12.6792 40.1222 22.7024 24.863 38.2608 21.6092C45.7782 20.0384 53.4826 21.5344 59.9154 25.7606C66.3482 29.9868 70.7614 36.457 72.3322 43.9744C73.903 51.4918 72.407 59.1962 68.1808 65.629C63.9546 72.0618 57.4844 76.475 49.967 78.0458C48.0222 78.4198 46.04 78.6442 44.0952 78.6442ZM44.17 21.3848C42.2252 21.3848 40.2804 21.5718 38.373 21.9832C23.0016 25.1622 13.128 40.2344 16.307 55.6058C17.8404 63.0484 22.1788 69.4064 28.5368 73.5952C34.8948 77.784 42.487 79.2052 49.8922 77.6718C57.3348 76.1384 63.6928 71.8 67.8816 65.442C72.0704 59.084 73.4916 51.4918 71.9582 44.0866C70.4248 36.644 66.0864 30.286 59.7284 26.0972C55.0534 22.9556 49.6678 21.3848 44.17 21.3848ZM44.1326 72.8846C33.4362 72.8846 23.787 65.3672 21.543 54.4838C18.9624 42.0296 27.0034 29.7998 39.4576 27.2192C51.9118 24.6386 64.1416 32.6796 66.7222 45.1338C69.3028 57.588 61.2618 69.8178 48.8076 72.3984C47.2368 72.735 45.666 72.8846 44.1326 72.8846ZM39.5324 27.5932C27.2652 30.1364 19.3738 42.1792 21.917 54.4464C24.4602 66.7136 36.503 74.605 48.7702 72.0618C61.0374 69.5186 68.9288 57.4758 66.3856 45.2086C63.8424 32.9414 51.7996 25.05 39.5324 27.5932Z" fill="#AFA9AE"/>
<path d="M59.1261 31.5988C58.5277 31.2622 58.0789 30.589 58.0415 29.841C57.9667 28.2328 57.8919 26.6246 57.8919 25.0164C57.8919 24.418 57.8545 23.5578 58.1163 22.6976C58.5277 21.426 59.4627 20.304 60.8465 19.4064C61.3701 19.0698 61.8937 18.808 62.4173 18.5836C62.7539 18.434 63.0905 18.247 63.4271 18.06C64.7735 17.2746 65.8955 16.003 66.4939 14.5444C66.7557 13.9086 66.8305 13.3476 66.7183 13.0484C66.6061 12.7492 66.1947 12.3752 65.5589 12.0386C63.6515 11.0288 61.3327 10.9914 59.7993 12.0012C58.8269 12.637 57.4805 12.3752 56.8447 11.3654C56.2089 10.3556 56.4707 9.0466 57.4805 8.4108C60.3229 6.5782 64.2873 6.5034 67.5785 8.2612C69.1867 9.1214 70.2339 10.2434 70.7575 11.5524C71.2437 12.8988 71.1689 14.4322 70.4957 16.1526C69.5607 18.5088 67.8029 20.5284 65.5963 21.8C65.1849 22.0618 64.7361 22.2488 64.3247 22.4732C63.9133 22.6976 63.5019 22.8846 63.1653 23.109C62.6791 23.4082 62.3425 23.7448 62.2677 24.0066C62.1929 24.231 62.1929 24.6424 62.2303 25.0164C62.2677 26.5872 62.3051 28.158 62.3799 29.7288C62.4173 30.9256 61.5197 31.898 60.3603 31.9728C59.8741 31.9354 59.4627 31.8232 59.1261 31.5988Z" fill="#AFA9AE"/>
<path d="M60.2119 32.0845C59.8005 32.0845 59.3891 31.9723 59.0525 31.7853C58.3419 31.3739 57.9305 30.6633 57.8931 29.8779C57.8183 28.2697 57.7435 26.6241 57.7435 25.0533C57.7435 24.4175 57.7061 23.5573 58.0053 22.6597C58.4167 21.3507 59.3891 20.1539 60.8103 19.2563C61.3339 18.9197 61.8949 18.6579 62.3811 18.3961L62.4559 18.3587C62.7551 18.2091 63.0543 18.0595 63.3535 17.8725C64.6625 17.0871 65.7471 15.8529 66.3081 14.4317C66.5325 13.8333 66.6447 13.3097 66.5325 13.0479C66.4203 12.7861 66.0463 12.4495 65.4479 12.1503C63.5779 11.1779 61.3713 11.1405 59.8753 12.1129C59.3517 12.4495 58.7159 12.5617 58.1175 12.4495C57.5191 12.3373 56.9955 11.9633 56.6589 11.4397C55.9483 10.3551 56.2475 8.93387 57.3321 8.22327C60.2119 6.35327 64.2511 6.27847 67.6171 8.03627C69.2627 8.93387 70.3847 10.0559 70.8709 11.4397C71.3945 12.8235 71.2823 14.4317 70.6091 16.1521C69.6367 18.5457 67.8789 20.6027 65.6349 21.8743C65.1861 22.1361 64.7747 22.3231 64.3633 22.5475C63.9519 22.7719 63.5405 22.9589 63.2039 23.1459C62.6803 23.4825 62.4559 23.7817 62.3811 23.9313C62.3063 24.1183 62.3437 24.5671 62.3437 24.8663C62.3811 26.4371 62.4185 28.0079 62.4933 29.5787C62.5307 30.2145 62.3063 30.7755 61.8949 31.2617C61.4835 31.7479 60.9225 31.9723 60.2867 32.0097C60.2867 32.0845 60.2493 32.0845 60.2119 32.0845ZM62.4933 11.0657C63.5405 11.0657 64.6251 11.3275 65.6349 11.8511C66.3081 12.1877 66.7569 12.5991 66.9065 12.9731C67.0561 13.3471 66.9439 13.9081 66.6821 14.6187C66.0837 16.1147 64.9617 17.4237 63.5405 18.2465C63.2413 18.4335 62.9047 18.5831 62.6055 18.7327L62.5307 18.7701C62.0071 19.0319 61.5209 19.2563 60.9973 19.5929C59.6509 20.4157 58.7533 21.5377 58.3419 22.7719C58.0801 23.6321 58.0801 24.4549 58.1175 25.0533C58.1549 26.6615 58.1923 28.2697 58.2671 29.8779C58.3045 30.5511 58.6785 31.1495 59.2395 31.4861C59.5761 31.6731 59.9501 31.7479 60.3241 31.7479C60.8477 31.7105 61.3339 31.4861 61.6705 31.1121C62.0071 30.7381 62.1941 30.2145 62.1941 29.6909C62.1193 28.1201 62.0819 26.5493 62.0445 24.9785C62.0445 24.6045 62.0445 24.1931 62.1193 23.9313C62.2315 23.6321 62.5681 23.2581 63.0917 22.9215C63.4283 22.6971 63.8397 22.5101 64.2885 22.2857C64.6999 22.0987 65.1113 21.8743 65.5227 21.6499C67.6919 20.3783 69.4123 18.4335 70.3099 16.1147C70.9831 14.4691 71.0579 12.9731 70.5717 11.6641C70.0855 10.3925 69.0383 9.30787 67.5049 8.44767C64.2885 6.72727 60.3615 6.80207 57.5939 8.59727C56.6963 9.19567 56.4345 10.3925 57.0329 11.2901C57.3321 11.7389 57.7435 12.0381 58.2671 12.1503C58.7907 12.2625 59.3143 12.1503 59.7257 11.8885C60.4737 11.2901 61.4461 11.0657 62.4933 11.0657Z" fill="#AFA9AE"/>
<path d="M60.81 39.5643C62.2972 39.5643 63.5028 38.3587 63.5028 36.8715C63.5028 35.3843 62.2972 34.1787 60.81 34.1787C59.3228 34.1787 58.1172 35.3843 58.1172 36.8715C58.1172 38.3587 59.3228 39.5643 60.81 39.5643Z" fill="#AFA9AE"/>
<path d="M60.8108 39.7515C60.3246 39.7515 59.801 39.6019 59.3522 39.3775C57.9684 38.5921 57.5196 36.7969 58.305 35.4131C58.679 34.7399 59.3148 34.2537 60.0628 34.0667C60.8108 33.8797 61.5962 33.9545 62.2694 34.3659C62.9426 34.7399 63.4288 35.3757 63.6158 36.1237C63.8028 36.8717 63.728 37.6571 63.3166 38.3303C62.9426 39.0035 62.3068 39.4897 61.5588 39.6767C61.297 39.7141 61.0352 39.7515 60.8108 39.7515ZM60.8108 34.3659C60.5864 34.3659 60.362 34.4033 60.1376 34.4407C59.5018 34.6277 58.9408 35.0391 58.6042 35.6001C57.8936 36.7969 58.305 38.3303 59.5018 39.0409C60.1002 39.3775 60.7734 39.4523 61.4092 39.3027C62.045 39.1157 62.606 38.7043 62.9426 38.1433C63.2792 37.5449 63.354 36.8717 63.2044 36.2359C63.0174 35.6001 62.606 35.0391 62.045 34.7025C61.671 34.4781 61.2596 34.3659 60.8108 34.3659Z" fill="#AFA9AE"/>
<path d="M59.1261 31.5988C58.5277 31.2622 58.0789 30.589 58.0415 29.841C57.9667 28.2328 57.8919 26.6246 57.8919 25.0164C57.8919 24.418 57.8545 23.5578 58.1163 22.6976C58.5277 21.426 59.4627 20.304 60.8465 19.4064C61.3701 19.0698 61.8937 18.808 62.4173 18.5836C62.7539 18.434 63.0905 18.247 63.4271 18.06C64.7735 17.2746 65.8955 16.003 66.4939 14.5444C66.7557 13.9086 66.8305 13.3476 66.7183 13.0484C66.6061 12.7492 66.1947 12.3752 65.5589 12.0386C63.6515 11.0288 61.3327 10.9914 59.7993 12.0012C58.8269 12.637 57.4805 12.3752 56.8447 11.3654C56.2089 10.3556 56.4707 9.0466 57.4805 8.4108C60.3229 6.5782 64.2873 6.5034 67.5785 8.2612C69.1867 9.1214 70.2339 10.2434 70.7575 11.5524C71.2437 12.8988 71.1689 14.4322 70.4957 16.1526C69.5607 18.5088 67.8029 20.5284 65.5963 21.8C65.1849 22.0618 64.7361 22.2488 64.3247 22.4732C63.9133 22.6976 63.5019 22.8846 63.1653 23.109C62.6791 23.4082 62.3425 23.7448 62.2677 24.0066C62.1929 24.231 62.1929 24.6424 62.2303 25.0164C62.2677 26.5872 62.3051 28.158 62.3799 29.7288C62.4173 30.9256 61.5197 31.898 60.3603 31.9728C59.8741 31.9354 59.4627 31.8232 59.1261 31.5988Z" fill="#AFA9AE"/>
<path d="M60.2119 32.0845C59.8005 32.0845 59.3891 31.9723 59.0525 31.7853C58.3419 31.3739 57.9305 30.6633 57.8931 29.8779C57.8183 28.2697 57.7435 26.6241 57.7435 25.0533C57.7435 24.4175 57.7061 23.5573 58.0053 22.6597C58.4167 21.3507 59.3891 20.1539 60.8103 19.2563C61.3339 18.9197 61.8949 18.6579 62.3811 18.3961L62.4559 18.3587C62.7551 18.2091 63.0543 18.0595 63.3535 17.8725C64.6625 17.0871 65.7471 15.8529 66.3081 14.4317C66.5325 13.8333 66.6447 13.3097 66.5325 13.0479C66.4203 12.7861 66.0463 12.4495 65.4479 12.1503C63.5779 11.1779 61.3713 11.1405 59.8753 12.1129C59.3517 12.4495 58.7159 12.5617 58.1175 12.4495C57.5191 12.3373 56.9955 11.9633 56.6589 11.4397C55.9483 10.3551 56.2475 8.93387 57.3321 8.22327C60.2119 6.35327 64.2511 6.27847 67.6171 8.03627C69.2627 8.93387 70.3847 10.0559 70.8709 11.4397C71.3945 12.8235 71.2823 14.4317 70.6091 16.1521C69.6367 18.5457 67.8789 20.6027 65.6349 21.8743C65.1861 22.1361 64.7747 22.3231 64.3633 22.5475C63.9519 22.7719 63.5405 22.9589 63.2039 23.1459C62.6803 23.4825 62.4559 23.7817 62.3811 23.9313C62.3063 24.1183 62.3437 24.5671 62.3437 24.8663C62.3811 26.4371 62.4185 28.0079 62.4933 29.5787C62.5307 30.2145 62.3063 30.7755 61.8949 31.2617C61.4835 31.7479 60.9225 31.9723 60.2867 32.0097C60.2867 32.0845 60.2493 32.0845 60.2119 32.0845ZM62.4933 11.0657C63.5405 11.0657 64.6251 11.3275 65.6349 11.8511C66.3081 12.1877 66.7569 12.5991 66.9065 12.9731C67.0561 13.3471 66.9439 13.9081 66.6821 14.6187C66.0837 16.1147 64.9617 17.4237 63.5405 18.2465C63.2413 18.4335 62.9047 18.5831 62.6055 18.7327L62.5307 18.7701C62.0071 19.0319 61.5209 19.2563 60.9973 19.5929C59.6509 20.4157 58.7533 21.5377 58.3419 22.7719C58.0801 23.6321 58.0801 24.4549 58.1175 25.0533C58.1549 26.6615 58.1923 28.2697 58.2671 29.8779C58.3045 30.5511 58.6785 31.1495 59.2395 31.4861C59.5761 31.6731 59.9501 31.7479 60.3241 31.7479C60.8477 31.7105 61.3339 31.4861 61.6705 31.1121C62.0071 30.7381 62.1941 30.2145 62.1941 29.6909C62.1193 28.1201 62.0819 26.5493 62.0445 24.9785C62.0445 24.6045 62.0445 24.1931 62.1193 23.9313C62.2315 23.6321 62.5681 23.2581 63.0917 22.9215C63.4283 22.6971 63.8397 22.5101 64.2885 22.2857C64.6999 22.0987 65.1113 21.8743 65.5227 21.6499C67.6919 20.3783 69.4123 18.4335 70.3099 16.1147C70.9831 14.4691 71.0579 12.9731 70.5717 11.6641C70.0855 10.3925 69.0383 9.30787 67.5049 8.44767C64.2885 6.72727 60.3615 6.80207 57.5939 8.59727C56.6963 9.19567 56.4345 10.3925 57.0329 11.2901C57.3321 11.7389 57.7435 12.0381 58.2671 12.1503C58.7907 12.2625 59.3143 12.1503 59.7257 11.8885C60.4737 11.2901 61.4461 11.0657 62.4933 11.0657Z" fill="#AFA9AE"/>
<path d="M60.81 39.5643C62.2972 39.5643 63.5028 38.3587 63.5028 36.8715C63.5028 35.3843 62.2972 34.1787 60.81 34.1787C59.3228 34.1787 58.1172 35.3843 58.1172 36.8715C58.1172 38.3587 59.3228 39.5643 60.81 39.5643Z" fill="#AFA9AE"/>
<path d="M60.8108 39.7515C60.3246 39.7515 59.801 39.6019 59.3522 39.3775C57.9684 38.5921 57.5196 36.7969 58.305 35.4131C58.679 34.7399 59.3148 34.2537 60.0628 34.0667C60.8108 33.8797 61.5962 33.9545 62.2694 34.3659C62.9426 34.7399 63.4288 35.3757 63.6158 36.1237C63.8028 36.8717 63.728 37.6571 63.3166 38.3303C62.9426 39.0035 62.3068 39.4897 61.5588 39.6767C61.297 39.7141 61.0352 39.7515 60.8108 39.7515ZM60.8108 34.3659C60.5864 34.3659 60.362 34.4033 60.1376 34.4407C59.5018 34.6277 58.9408 35.0391 58.6042 35.6001C57.8936 36.7969 58.305 38.3303 59.5018 39.0409C60.1002 39.3775 60.7734 39.4523 61.4092 39.3027C62.045 39.1157 62.606 38.7043 62.9426 38.1433C63.2792 37.5449 63.354 36.8717 63.2044 36.2359C63.0174 35.6001 62.606 35.0391 62.045 34.7025C61.671 34.4781 61.2596 34.3659 60.8108 34.3659Z" fill="#AFA9AE"/>
<path d="M59.1261 31.5988C58.5277 31.2622 58.0789 30.589 58.0415 29.841C57.9667 28.2328 57.8919 26.6246 57.8919 25.0164C57.8919 24.418 57.8545 23.5578 58.1163 22.6976C58.5277 21.426 59.4627 20.304 60.8465 19.4064C61.3701 19.0698 61.8937 18.808 62.4173 18.5836C62.7539 18.434 63.0905 18.247 63.4271 18.06C64.7735 17.2746 65.8955 16.003 66.4939 14.5444C66.7557 13.9086 66.8305 13.3476 66.7183 13.0484C66.6061 12.7492 66.1947 12.3752 65.5589 12.0386C63.6515 11.0288 61.3327 10.9914 59.7993 12.0012C58.8269 12.637 57.4805 12.3752 56.8447 11.3654C56.2089 10.3556 56.4707 9.0466 57.4805 8.4108C60.3229 6.5782 64.2873 6.5034 67.5785 8.2612C69.1867 9.1214 70.2339 10.2434 70.7575 11.5524C71.2437 12.8988 71.1689 14.4322 70.4957 16.1526C69.5607 18.5088 67.8029 20.5284 65.5963 21.8C65.1849 22.0618 64.7361 22.2488 64.3247 22.4732C63.9133 22.6976 63.5019 22.8846 63.1653 23.109C62.6791 23.4082 62.3425 23.7448 62.2677 24.0066C62.1929 24.231 62.1929 24.6424 62.2303 25.0164C62.2677 26.5872 62.3051 28.158 62.3799 29.7288C62.4173 30.9256 61.5197 31.898 60.3603 31.9728C59.8741 31.9354 59.4627 31.8232 59.1261 31.5988Z" stroke="#AFA9AE" stroke-width="0.4" stroke-linecap="round" stroke-linejoin="round"/>
<path d="M60.81 39.5643C62.2972 39.5643 63.5028 38.3587 63.5028 36.8715C63.5028 35.3843 62.2972 34.1787 60.81 34.1787C59.3228 34.1787 58.1172 35.3843 58.1172 36.8715C58.1172 38.3587 59.3228 39.5643 60.81 39.5643Z" stroke="#AFA9AE" stroke-width="0.4" stroke-linecap="round" stroke-linejoin="round"/>
</svg>
