<svg width="124" height="100" viewBox="0 0 124 100" fill="none" xmlns="http://www.w3.org/2000/svg">
<path d="M18.7747 137.723C18.8121 137.76 18.8121 137.797 18.8495 137.835L18.8869 137.872C19.7471 138.957 20.9065 139.78 22.3277 140.191C22.6643 140.303 23.0009 140.378 23.3375 140.415L26.5539 140.827L85.7581 148.494C89.2737 148.943 92.5275 146.586 93.2381 143.108L116.725 24.9617L118.446 16.3223C118.558 15.8361 118.595 15.3125 118.558 14.8263C118.521 13.5173 118.109 12.3205 117.436 11.2733C116.389 9.7025 114.706 8.5805 112.686 8.3187L50.2655 0.240297C46.7499 -0.208503 43.4961 2.1477 42.7855 5.6259L17.5779 132.412C17.2039 134.357 17.6901 136.264 18.7747 137.723Z" fill="#F4EEFF"/>
<path d="M86.5806 148.718C86.2814 148.718 85.9822 148.718 85.683 148.681L23.2998 140.603C22.9258 140.565 22.5892 140.49 22.2526 140.378C20.8314 139.967 19.6346 139.144 18.737 137.985C18.6996 137.91 18.6622 137.872 18.6248 137.835C17.4654 136.264 17.0166 134.282 17.3906 132.375L42.5982 5.58852C43.3088 2.03552 46.6748 -0.39548 50.3026 0.05332L112.686 8.13172C114.668 8.39352 116.463 9.51552 117.548 11.1611C118.296 12.2831 118.67 13.5173 118.707 14.8263C118.707 15.3125 118.67 15.8361 118.595 16.3597L116.875 24.9991L93.3874 143.146C92.7516 146.4 89.8344 148.718 86.5806 148.718ZM49.3676 0.35252C46.3008 0.35252 43.5332 2.52172 42.9348 5.62592L17.7272 132.412C17.3532 134.245 17.802 136.115 18.8866 137.611C18.924 137.648 18.924 137.685 18.9614 137.723C19.8216 138.845 20.981 139.63 22.3274 140.004C22.6266 140.079 22.9632 140.154 23.2998 140.191L85.683 148.27C89.0864 148.718 92.3028 146.4 92.976 143.034L116.501 24.9243L118.221 16.2849C118.333 15.7987 118.371 15.3125 118.333 14.8263C118.296 13.5921 117.922 12.3953 117.249 11.3855C116.201 9.81472 114.518 8.76752 112.611 8.50572L50.2278 0.42732C49.9286 0.38992 49.6668 0.35252 49.3676 0.35252Z" fill="#111111"/>
<path d="M112.762 14.9382V15.013C112.762 15.0504 112.762 15.1252 112.762 15.2L109.957 29.2998L87.5541 141.986C87.4419 142.472 87.0679 142.697 86.8061 142.771C86.6939 142.809 86.5817 142.809 86.4695 142.771L24.0863 134.693C24.0115 134.693 23.9741 134.693 23.9741 134.693L23.8993 134.656C23.7123 134.618 23.5627 134.469 23.4879 134.394L23.4131 134.282C23.3009 134.132 23.1887 133.87 23.2261 133.534L45.5165 21.371L48.4337 6.71023C48.5085 6.22403 48.8825 5.99963 49.1817 5.92483C49.2939 5.92483 49.4061 5.88743 49.5183 5.92483L111.901 14.0032C112.275 14.0406 112.5 14.265 112.612 14.452L112.649 14.4894C112.687 14.6016 112.762 14.7512 112.762 14.9382Z" fill="#F4EEFF"/>
<path d="M86.5816 142.958C86.5441 142.958 86.4694 142.958 86.4319 142.958L24.0488 134.88L23.8244 134.843C23.6374 134.805 23.4504 134.693 23.3008 134.506L23.2259 134.394C23.1137 134.244 22.9268 133.908 23.0016 133.496L48.2092 6.71012C48.3214 6.14912 48.7702 5.84992 49.1068 5.77512C49.2564 5.73772 49.3686 5.73772 49.5182 5.77512L111.901 13.8535C112.35 13.9283 112.612 14.1901 112.724 14.3771L112.762 14.4145C112.836 14.5267 112.949 14.7137 112.949 14.9755V15.0503C112.949 15.0877 112.949 15.1625 112.949 15.2747L87.741 142.061C87.6288 142.622 87.18 142.921 86.8434 142.996C86.7686 142.958 86.6937 142.958 86.5816 142.958ZM49.3686 6.11172C49.3312 6.11172 49.2563 6.11172 49.219 6.11172C48.9946 6.14912 48.6954 6.37352 48.6206 6.74752L23.4129 133.534C23.3755 133.833 23.4504 134.02 23.5626 134.132L23.6374 134.244C23.7122 134.356 23.8243 134.394 23.9739 134.431L24.1236 134.469L86.5068 142.547C86.5816 142.547 86.6937 142.547 86.7685 142.547C86.993 142.51 87.3296 142.323 87.4044 141.911L112.612 15.1251C112.612 15.0503 112.612 15.0129 112.612 14.9755V14.9007C112.612 14.7511 112.537 14.6389 112.5 14.5641C112.388 14.4145 112.201 14.2275 111.901 14.1901L49.4808 6.14912C49.4434 6.14912 49.406 6.11172 49.3686 6.11172Z" fill="#111111"/>
<path d="M18.8865 137.872L23.6737 144.081L23.8233 144.268L23.8607 144.305C24.9079 145.577 26.4413 146.474 28.1991 146.736L90.5823 154.815C94.0979 155.263 97.3517 152.907 98.0623 149.429L123.27 22.643C123.606 20.8852 123.232 19.1274 122.335 17.7062C122.335 17.7062 122.335 17.6688 122.297 17.6688L121.587 16.7712L117.398 11.3108C118.071 12.358 118.483 13.5548 118.52 14.8638C118.52 15.35 118.483 15.8736 118.408 16.3598L116.687 24.9992L93.2003 143.108C92.4897 146.587 89.2359 148.943 85.7203 148.494L26.5161 140.827L23.2997 140.416C22.9631 140.378 22.6265 140.303 22.2899 140.191C20.9061 139.78 19.7467 138.957 18.8865 137.872Z" fill="#111111"/>
<path d="M91.4433 155.039C91.1441 155.039 90.8449 155.039 90.5457 155.002L28.1625 146.923C26.4047 146.699 24.8339 145.801 23.7119 144.455L23.5623 144.23L18.7751 138.022C18.7003 137.947 18.7377 137.835 18.8125 137.76C18.8873 137.685 18.9995 137.723 19.0743 137.798C19.9345 138.882 21.0565 139.668 22.4029 140.042C22.7021 140.116 23.0387 140.191 23.3753 140.229L85.7586 148.307C89.1619 148.756 92.3783 146.437 93.0516 143.071L116.501 24.9244L118.222 16.285C118.334 15.7988 118.371 15.3126 118.334 14.8264C118.297 13.5922 117.923 12.3954 117.249 11.3856C117.212 11.3108 117.212 11.1986 117.287 11.1238C117.362 11.049 117.474 11.0864 117.549 11.1612L122.448 17.5566C122.448 17.5566 122.485 17.594 122.485 17.6314C123.42 19.1274 123.757 20.9226 123.42 22.6804L98.2127 149.466C97.6143 152.72 94.6971 155.002 91.4433 155.039ZM20.3833 139.518L23.9737 144.193C25.0209 145.502 26.5169 146.325 28.1999 146.512L90.5831 154.59C93.9865 155.039 97.2029 152.72 97.8761 149.354L123.084 22.5682C123.42 20.9226 123.084 19.2022 122.186 17.781V17.7436L118.409 12.8068C118.633 13.4426 118.745 14.1158 118.745 14.789C118.745 15.2752 118.708 15.7988 118.633 16.3224L116.913 24.9618L93.3881 143.146C92.6775 146.699 89.3115 149.13 85.6837 148.681L23.3005 140.603C22.9265 140.565 22.5899 140.49 22.2533 140.378C21.5801 140.191 20.9443 139.892 20.3833 139.518Z" fill="#111111"/>
<path d="M105.841 24.1385C105.804 24.1385 105.729 24.1011 105.692 24.0637L99.5955 16.0975C99.5207 16.0227 99.5581 15.9105 99.6329 15.8357C99.7077 15.7609 99.8199 15.7983 99.8947 15.8731L105.991 23.8393C106.066 23.9141 106.028 24.0263 105.953 24.1011C105.916 24.1385 105.879 24.1385 105.841 24.1385Z" fill="#111111"/>
<path d="M104.122 31.6185C104.084 31.6185 104.01 31.5811 103.972 31.5437L92.1912 16.0975C92.1164 16.0227 92.1538 15.9105 92.2286 15.8357C92.3034 15.7609 92.4156 15.7983 92.4904 15.8731L104.271 31.3193C104.346 31.3941 104.309 31.5063 104.234 31.5811C104.197 31.6185 104.159 31.6185 104.122 31.6185Z" fill="#111111"/>
<path d="M102.999 40.4452C102.961 40.4452 102.887 40.4078 102.849 40.3704L83.5134 15.0506C83.4386 14.9758 83.476 14.8636 83.5508 14.7888C83.6256 14.714 83.7378 14.7514 83.8126 14.8262L103.148 40.146C103.223 40.2208 103.186 40.333 103.111 40.4078C103.074 40.4452 103.036 40.4452 102.999 40.4452Z" fill="#111111"/>
<path d="M11.7443 114.086C11.0337 114.235 10.2483 114.123 9.57505 113.674C8.26605 112.814 7.89205 111.019 8.75225 109.71L26.5173 82.6698C27.3775 81.3608 29.1727 80.9868 30.4817 81.847C31.7907 82.7072 32.1647 84.5024 31.3045 85.8114L13.5395 112.852C13.1281 113.525 12.4923 113.936 11.7443 114.086Z" fill="#111111"/>
<path d="M11.1831 114.347C10.5847 114.347 10.0237 114.16 9.50011 113.861C8.82691 113.412 8.34071 112.739 8.19111 111.916C8.04151 111.093 8.19111 110.308 8.63991 109.635L26.4049 82.5946C26.8537 81.9214 27.5269 81.4352 28.3497 81.2856C29.1725 81.136 29.9579 81.2856 30.6311 81.7344C31.3043 82.1832 31.7905 82.8564 31.9401 83.6792C32.0897 84.4646 31.9401 85.2874 31.4913 85.9606L13.7263 112.963C13.2775 113.637 12.6043 114.123 11.7815 114.272C11.5945 114.31 11.3701 114.347 11.1831 114.347ZM28.9481 81.5848C28.7611 81.5848 28.5741 81.5848 28.3871 81.6222C27.6765 81.7718 27.0781 82.1832 26.7041 82.7816L8.93911 109.822C8.52771 110.42 8.41551 111.131 8.56511 111.841C8.71471 112.552 9.12611 113.15 9.72451 113.524C10.3229 113.898 11.0335 114.048 11.7441 113.898C12.4547 113.749 13.0531 113.337 13.4271 112.739L31.1921 85.6988C31.6035 85.1004 31.7157 84.3898 31.5661 83.6792C31.4165 82.9686 31.0051 82.3702 30.4067 81.9962C29.9579 81.7344 29.4343 81.5848 28.9481 81.5848Z" fill="#111111"/>
<path d="M4.48851 125.941C3.62831 125.941 2.7681 125.679 2.0201 125.193C-0.0368972 123.847 -0.635295 121.042 0.748505 118.985L19.7851 89.9625C21.1315 87.9055 23.9365 87.3071 25.9935 88.6909C28.0505 90.0747 28.6489 92.8423 27.2651 94.8993L8.1911 123.922C7.5179 124.931 6.5081 125.605 5.3487 125.866C5.0869 125.904 4.78771 125.941 4.48851 125.941ZM23.5625 88.3543C22.2161 88.3543 20.9071 88.9901 20.1217 90.2243L1.0851 119.247C-0.149097 121.154 0.374505 123.697 2.2819 124.931C3.2169 125.53 4.3015 125.754 5.3861 125.53C6.4707 125.305 7.3683 124.67 8.0041 123.772L27.0781 94.7497C28.3123 92.8423 27.7887 90.2991 25.9187 89.0649C25.0959 88.5787 24.3105 88.3543 23.5625 88.3543Z" fill="#111111"/>
<path d="M49.93 91.1592C34.4838 94.3756 19.2994 84.3898 16.083 68.9436C12.8666 53.4974 22.8524 38.313 38.2986 35.0966C53.7448 31.8802 68.9292 41.866 72.1456 57.3122C75.362 72.7958 65.4136 87.9802 49.93 91.1592ZM39.4954 40.744C27.116 43.2872 19.1498 55.4422 21.7304 67.7842C24.2736 80.1262 36.4286 88.1298 48.7706 85.5492C61.1126 82.9686 69.1162 70.851 66.5356 58.4716C63.9924 46.1296 51.8748 38.1634 39.4954 40.744Z" fill="#F4EEFF"/>
<path d="M44.0952 91.9821C38.5226 91.9821 33.0996 90.3739 28.3124 87.2323C21.8796 83.0061 17.4664 76.5359 15.8956 69.0185C12.6792 53.4601 22.7024 38.2009 38.2608 34.9471C45.7782 33.3763 53.4826 34.8723 59.9154 39.0985C66.3482 43.3247 70.7614 49.7949 72.3322 57.3123C73.903 64.8297 72.407 72.5341 68.1808 78.9669C63.9546 85.3997 57.4844 89.8129 49.967 91.3837C48.0222 91.7577 46.04 91.9821 44.0952 91.9821ZM44.17 34.7227C42.2252 34.7227 40.2804 34.9097 38.373 35.3211C23.0016 38.5001 13.128 53.5723 16.307 68.9437C17.8404 76.3863 22.1788 82.7443 28.5368 86.9331C34.8948 91.1219 42.487 92.5431 49.8922 91.0097C57.3348 89.4763 63.6928 85.1379 67.8816 78.7799C72.0704 72.4219 73.4916 64.8297 71.9582 57.4245C70.4248 49.9819 66.0864 43.6239 59.7284 39.4351C55.0534 36.2935 49.6678 34.7227 44.17 34.7227ZM44.1326 86.2225C33.4362 86.2225 23.787 78.7051 21.543 67.8217C18.9624 55.3675 27.0034 43.1377 39.4576 40.5571C51.9118 37.9765 64.1416 46.0175 66.7222 58.4717C69.3028 70.9259 61.2618 83.1557 48.8076 85.7363C47.2368 86.0729 45.666 86.2225 44.1326 86.2225ZM39.5324 40.9311C27.2652 43.4743 19.3738 55.5171 21.917 67.7843C24.4602 80.0515 36.503 87.9429 48.7702 85.3997C61.0374 82.8565 68.9288 70.8137 66.3856 58.5465C63.8424 46.2793 51.7996 38.3879 39.5324 40.9311Z" fill="#111111"/>
<path d="M1.06414 119.245L1.06448 119.244L20.1007 90.2224C20.1008 90.2223 20.1008 90.2222 20.1009 90.2221C21.3499 88.331 23.8815 87.7976 25.7702 89.0449C27.6615 90.2938 28.1951 92.8256 26.9478 94.7143L26.9475 94.7147L7.87351 123.737L7.87344 123.737L7.87032 123.742C7.30429 124.662 6.34485 125.269 5.30732 125.484C4.27188 125.698 3.16712 125.519 2.24147 124.914C0.350332 123.665 -0.183128 121.133 1.06414 119.245Z" fill="#F4EEFF" stroke="#111111" stroke-width="0.4"/>
<path d="M55.1261 48.5978C54.5277 48.2612 54.0789 47.588 54.0415 46.84C53.9667 45.2318 53.8919 43.6236 53.8919 42.0154C53.8919 41.417 53.8545 40.5568 54.1163 39.6966C54.5277 38.425 55.4627 37.303 56.8465 36.4054C57.3701 36.0688 57.8937 35.807 58.4173 35.5826C58.7539 35.433 59.0905 35.246 59.4271 35.059C60.7735 34.2736 61.8955 33.002 62.4939 31.5434C62.7557 30.9076 62.8305 30.3466 62.7183 30.0474C62.6061 29.7482 62.1947 29.3742 61.5589 29.0376C59.6515 28.0278 57.3327 27.9904 55.7993 29.0002C54.8269 29.636 53.4805 29.3742 52.8447 28.3644C52.2089 27.3546 52.4707 26.0456 53.4805 25.4098C56.3229 23.5772 60.2873 23.5024 63.5785 25.2602C65.1867 26.1204 66.2339 27.2424 66.7575 28.5514C67.2437 29.8978 67.1689 31.4312 66.4957 33.1516C65.5607 35.5078 63.8029 37.5274 61.5963 38.799C61.1849 39.0608 60.7361 39.2478 60.3247 39.4722C59.9133 39.6966 59.5019 39.8836 59.1653 40.108C58.6791 40.4072 58.3425 40.7438 58.2677 41.0056C58.1929 41.23 58.1929 41.6414 58.2303 42.0154C58.2677 43.5862 58.3051 45.157 58.3799 46.7278C58.4173 47.9246 57.5197 48.897 56.3603 48.9718C55.8741 48.9344 55.4627 48.8222 55.1261 48.5978Z" fill="#111111"/>
<path d="M56.2119 49.0845C55.8005 49.0845 55.3891 48.9723 55.0525 48.7853C54.3419 48.3739 53.9305 47.6633 53.8931 46.8779C53.8183 45.2697 53.7435 43.6241 53.7435 42.0533C53.7435 41.4175 53.7061 40.5573 54.0053 39.6597C54.4167 38.3507 55.3891 37.1539 56.8103 36.2563C57.3339 35.9197 57.8949 35.6579 58.3811 35.3961L58.4559 35.3587C58.7551 35.2091 59.0543 35.0595 59.3535 34.8725C60.6625 34.0871 61.7471 32.8529 62.3081 31.4317C62.5325 30.8333 62.6447 30.3097 62.5325 30.0479C62.4203 29.7861 62.0463 29.4495 61.4479 29.1503C59.5779 28.1779 57.3713 28.1405 55.8753 29.1129C55.3517 29.4495 54.7159 29.5617 54.1175 29.4495C53.5191 29.3373 52.9955 28.9633 52.6589 28.4397C51.9483 27.3551 52.2475 25.9339 53.3321 25.2233C56.2119 23.3533 60.2511 23.2785 63.6171 25.0363C65.2627 25.9339 66.3847 27.0559 66.8709 28.4397C67.3945 29.8235 67.2823 31.4317 66.6091 33.1521C65.6367 35.5457 63.8789 37.6027 61.6349 38.8743C61.1861 39.1361 60.7747 39.3231 60.3633 39.5475C59.9519 39.7719 59.5405 39.9589 59.2039 40.1459C58.6803 40.4825 58.4559 40.7817 58.3811 40.9313C58.3063 41.1183 58.3437 41.5671 58.3437 41.8663C58.3811 43.4371 58.4185 45.0079 58.4933 46.5787C58.5307 47.2145 58.3063 47.7755 57.8949 48.2617C57.4835 48.7479 56.9225 48.9723 56.2867 49.0097C56.2867 49.0845 56.2493 49.0845 56.2119 49.0845ZM58.4933 28.0657C59.5405 28.0657 60.6251 28.3275 61.6349 28.8511C62.3081 29.1877 62.7569 29.5991 62.9065 29.9731C63.0561 30.3471 62.9439 30.9081 62.6821 31.6187C62.0837 33.1147 60.9617 34.4237 59.5405 35.2465C59.2413 35.4335 58.9047 35.5831 58.6055 35.7327L58.5307 35.7701C58.0071 36.0319 57.5209 36.2563 56.9973 36.5929C55.6509 37.4157 54.7533 38.5377 54.3419 39.7719C54.0801 40.6321 54.0801 41.4549 54.1175 42.0533C54.1549 43.6615 54.1923 45.2697 54.2671 46.8779C54.3045 47.5511 54.6785 48.1495 55.2395 48.4861C55.5761 48.6731 55.9501 48.7479 56.3241 48.7479C56.8477 48.7105 57.3339 48.4861 57.6705 48.1121C58.0071 47.7381 58.1941 47.2145 58.1941 46.6909C58.1193 45.1201 58.0819 43.5493 58.0445 41.9785C58.0445 41.6045 58.0445 41.1931 58.1193 40.9313C58.2315 40.6321 58.5681 40.2581 59.0917 39.9215C59.4283 39.6971 59.8397 39.5101 60.2885 39.2857C60.6999 39.0987 61.1113 38.8743 61.5227 38.6499C63.6919 37.3783 65.4123 35.4335 66.3099 33.1147C66.9831 31.4691 67.0579 29.9731 66.5717 28.6641C66.0855 27.3925 65.0383 26.3079 63.5049 25.4477C60.2885 23.7273 56.3615 23.8021 53.5939 25.5973C52.6963 26.1957 52.4345 27.3925 53.0329 28.2901C53.3321 28.7389 53.7435 29.0381 54.2671 29.1503C54.7907 29.2625 55.3143 29.1503 55.7257 28.8885C56.4737 28.2901 57.4461 28.0657 58.4933 28.0657Z" fill="#111111"/>
<path d="M56.81 56.5646C58.2972 56.5646 59.5028 55.3589 59.5028 53.8718C59.5028 52.3846 58.2972 51.179 56.81 51.179C55.3228 51.179 54.1172 52.3846 54.1172 53.8718C54.1172 55.3589 55.3228 56.5646 56.81 56.5646Z" fill="#111111"/>
<path d="M56.8108 56.7515C56.3246 56.7515 55.801 56.6019 55.3522 56.3775C53.9684 55.5921 53.5196 53.7969 54.305 52.4131C54.679 51.7399 55.3148 51.2537 56.0628 51.0667C56.8108 50.8797 57.5962 50.9545 58.2694 51.3659C58.9426 51.7399 59.4288 52.3757 59.6158 53.1237C59.8028 53.8717 59.728 54.6571 59.3166 55.3303C58.9426 56.0035 58.3068 56.4897 57.5588 56.6767C57.297 56.7141 57.0352 56.7515 56.8108 56.7515ZM56.8108 51.3659C56.5864 51.3659 56.362 51.4033 56.1376 51.4407C55.5018 51.6277 54.9408 52.0391 54.6042 52.6001C53.8936 53.7969 54.305 55.3303 55.5018 56.0409C56.1002 56.3775 56.7734 56.4523 57.4092 56.3027C58.045 56.1157 58.606 55.7043 58.9426 55.1433C59.2792 54.5449 59.354 53.8717 59.2044 53.2359C59.0174 52.6001 58.606 52.0391 58.045 51.7025C57.671 51.4781 57.2596 51.3659 56.8108 51.3659Z" fill="#111111"/>
<path d="M55.1261 48.5978C54.5277 48.2612 54.0789 47.588 54.0415 46.84C53.9667 45.2318 53.8919 43.6236 53.8919 42.0154C53.8919 41.417 53.8545 40.5568 54.1163 39.6966C54.5277 38.425 55.4627 37.303 56.8465 36.4054C57.3701 36.0688 57.8937 35.807 58.4173 35.5826C58.7539 35.433 59.0905 35.246 59.4271 35.059C60.7735 34.2736 61.8955 33.002 62.4939 31.5434C62.7557 30.9076 62.8305 30.3466 62.7183 30.0474C62.6061 29.7482 62.1947 29.3742 61.5589 29.0376C59.6515 28.0278 57.3327 27.9904 55.7993 29.0002C54.8269 29.636 53.4805 29.3742 52.8447 28.3644C52.2089 27.3546 52.4707 26.0456 53.4805 25.4098C56.3229 23.5772 60.2873 23.5024 63.5785 25.2602C65.1867 26.1204 66.2339 27.2424 66.7575 28.5514C67.2437 29.8978 67.1689 31.4312 66.4957 33.1516C65.5607 35.5078 63.8029 37.5274 61.5963 38.799C61.1849 39.0608 60.7361 39.2478 60.3247 39.4722C59.9133 39.6966 59.5019 39.8836 59.1653 40.108C58.6791 40.4072 58.3425 40.7438 58.2677 41.0056C58.1929 41.23 58.1929 41.6414 58.2303 42.0154C58.2677 43.5862 58.3051 45.157 58.3799 46.7278C58.4173 47.9246 57.5197 48.897 56.3603 48.9718C55.8741 48.9344 55.4627 48.8222 55.1261 48.5978Z" fill="#111111"/>
<path d="M56.2119 49.0845C55.8005 49.0845 55.3891 48.9723 55.0525 48.7853C54.3419 48.3739 53.9305 47.6633 53.8931 46.8779C53.8183 45.2697 53.7435 43.6241 53.7435 42.0533C53.7435 41.4175 53.7061 40.5573 54.0053 39.6597C54.4167 38.3507 55.3891 37.1539 56.8103 36.2563C57.3339 35.9197 57.8949 35.6579 58.3811 35.3961L58.4559 35.3587C58.7551 35.2091 59.0543 35.0595 59.3535 34.8725C60.6625 34.0871 61.7471 32.8529 62.3081 31.4317C62.5325 30.8333 62.6447 30.3097 62.5325 30.0479C62.4203 29.7861 62.0463 29.4495 61.4479 29.1503C59.5779 28.1779 57.3713 28.1405 55.8753 29.1129C55.3517 29.4495 54.7159 29.5617 54.1175 29.4495C53.5191 29.3373 52.9955 28.9633 52.6589 28.4397C51.9483 27.3551 52.2475 25.9339 53.3321 25.2233C56.2119 23.3533 60.2511 23.2785 63.6171 25.0363C65.2627 25.9339 66.3847 27.0559 66.8709 28.4397C67.3945 29.8235 67.2823 31.4317 66.6091 33.1521C65.6367 35.5457 63.8789 37.6027 61.6349 38.8743C61.1861 39.1361 60.7747 39.3231 60.3633 39.5475C59.9519 39.7719 59.5405 39.9589 59.2039 40.1459C58.6803 40.4825 58.4559 40.7817 58.3811 40.9313C58.3063 41.1183 58.3437 41.5671 58.3437 41.8663C58.3811 43.4371 58.4185 45.0079 58.4933 46.5787C58.5307 47.2145 58.3063 47.7755 57.8949 48.2617C57.4835 48.7479 56.9225 48.9723 56.2867 49.0097C56.2867 49.0845 56.2493 49.0845 56.2119 49.0845ZM58.4933 28.0657C59.5405 28.0657 60.6251 28.3275 61.6349 28.8511C62.3081 29.1877 62.7569 29.5991 62.9065 29.9731C63.0561 30.3471 62.9439 30.9081 62.6821 31.6187C62.0837 33.1147 60.9617 34.4237 59.5405 35.2465C59.2413 35.4335 58.9047 35.5831 58.6055 35.7327L58.5307 35.7701C58.0071 36.0319 57.5209 36.2563 56.9973 36.5929C55.6509 37.4157 54.7533 38.5377 54.3419 39.7719C54.0801 40.6321 54.0801 41.4549 54.1175 42.0533C54.1549 43.6615 54.1923 45.2697 54.2671 46.8779C54.3045 47.5511 54.6785 48.1495 55.2395 48.4861C55.5761 48.6731 55.9501 48.7479 56.3241 48.7479C56.8477 48.7105 57.3339 48.4861 57.6705 48.1121C58.0071 47.7381 58.1941 47.2145 58.1941 46.6909C58.1193 45.1201 58.0819 43.5493 58.0445 41.9785C58.0445 41.6045 58.0445 41.1931 58.1193 40.9313C58.2315 40.6321 58.5681 40.2581 59.0917 39.9215C59.4283 39.6971 59.8397 39.5101 60.2885 39.2857C60.6999 39.0987 61.1113 38.8743 61.5227 38.6499C63.6919 37.3783 65.4123 35.4335 66.3099 33.1147C66.9831 31.4691 67.0579 29.9731 66.5717 28.6641C66.0855 27.3925 65.0383 26.3079 63.5049 25.4477C60.2885 23.7273 56.3615 23.8021 53.5939 25.5973C52.6963 26.1957 52.4345 27.3925 53.0329 28.2901C53.3321 28.7389 53.7435 29.0381 54.2671 29.1503C54.7907 29.2625 55.3143 29.1503 55.7257 28.8885C56.4737 28.2901 57.4461 28.0657 58.4933 28.0657Z" fill="#111111"/>
<path d="M56.81 56.5646C58.2972 56.5646 59.5028 55.3589 59.5028 53.8718C59.5028 52.3846 58.2972 51.179 56.81 51.179C55.3228 51.179 54.1172 52.3846 54.1172 53.8718C54.1172 55.3589 55.3228 56.5646 56.81 56.5646Z" fill="#111111"/>
<path d="M56.8108 56.7515C56.3246 56.7515 55.801 56.6019 55.3522 56.3775C53.9684 55.5921 53.5196 53.7969 54.305 52.4131C54.679 51.7399 55.3148 51.2537 56.0628 51.0667C56.8108 50.8797 57.5962 50.9545 58.2694 51.3659C58.9426 51.7399 59.4288 52.3757 59.6158 53.1237C59.8028 53.8717 59.728 54.6571 59.3166 55.3303C58.9426 56.0035 58.3068 56.4897 57.5588 56.6767C57.297 56.7141 57.0352 56.7515 56.8108 56.7515ZM56.8108 51.3659C56.5864 51.3659 56.362 51.4033 56.1376 51.4407C55.5018 51.6277 54.9408 52.0391 54.6042 52.6001C53.8936 53.7969 54.305 55.3303 55.5018 56.0409C56.1002 56.3775 56.7734 56.4523 57.4092 56.3027C58.045 56.1157 58.606 55.7043 58.9426 55.1433C59.2792 54.5449 59.354 53.8717 59.2044 53.2359C59.0174 52.6001 58.606 52.0391 58.045 51.7025C57.671 51.4781 57.2596 51.3659 56.8108 51.3659Z" fill="#111111"/>
<path d="M55.1261 48.5978C54.5277 48.2612 54.0789 47.588 54.0415 46.84C53.9667 45.2318 53.8919 43.6236 53.8919 42.0154C53.8919 41.417 53.8545 40.5568 54.1163 39.6966C54.5277 38.425 55.4627 37.303 56.8465 36.4054C57.3701 36.0688 57.8937 35.807 58.4173 35.5826C58.7539 35.433 59.0905 35.246 59.4271 35.059C60.7735 34.2736 61.8955 33.002 62.4939 31.5434C62.7557 30.9076 62.8305 30.3466 62.7183 30.0474C62.6061 29.7482 62.1947 29.3742 61.5589 29.0376C59.6515 28.0278 57.3327 27.9904 55.7993 29.0002C54.8269 29.636 53.4805 29.3742 52.8447 28.3644C52.2089 27.3546 52.4707 26.0456 53.4805 25.4098C56.3229 23.5772 60.2873 23.5024 63.5785 25.2602C65.1867 26.1204 66.2339 27.2424 66.7575 28.5514C67.2437 29.8978 67.1689 31.4312 66.4957 33.1516C65.5607 35.5078 63.8029 37.5274 61.5963 38.799C61.1849 39.0608 60.7361 39.2478 60.3247 39.4722C59.9133 39.6966 59.5019 39.8836 59.1653 40.108C58.6791 40.4072 58.3425 40.7438 58.2677 41.0056C58.1929 41.23 58.1929 41.6414 58.2303 42.0154C58.2677 43.5862 58.3051 45.157 58.3799 46.7278C58.4173 47.9246 57.5197 48.897 56.3603 48.9718C55.8741 48.9344 55.4627 48.8222 55.1261 48.5978Z" stroke="#111111" stroke-width="0.4" stroke-linecap="round" stroke-linejoin="round"/>
<path d="M56.81 56.5646C58.2972 56.5646 59.5028 55.3589 59.5028 53.8718C59.5028 52.3846 58.2972 51.179 56.81 51.179C55.3228 51.179 54.1172 52.3846 54.1172 53.8718C54.1172 55.3589 55.3228 56.5646 56.81 56.5646Z" stroke="#111111" stroke-width="0.4" stroke-linecap="round" stroke-linejoin="round"/>
</svg>
