<svg width="262" height="328" viewBox="0 0 262 328" fill="none" xmlns="http://www.w3.org/2000/svg">
<path d="M250.37 42.8907C249.59 42.0807 248.72 41.4204 247.79 40.8804L247.16 40.5804C244.94 39.4704 242.39 39.1407 239.51 39.5007L194.6 46.1007L169.88 49.7307C167.18 50.2107 164.48 51.2007 161.75 52.7607C159.05 54.3207 156.35 56.4507 153.65 59.1207L136.58 76.3107L84.0202 129.261C79.5802 133.851 75.9502 139.16 73.1302 145.22C70.3402 151.25 68.9302 157.071 68.9302 162.621V225.531C68.9302 236.901 69.9802 247.401 72.0502 257.031C74.7202 269.451 79.0999 280.4 85.2799 289.91C87.3499 293.18 89.6299 296.271 92.1499 299.181C97.0399 304.88 102.44 309.41 108.38 312.8C121.25 320.15 136.64 322.07 154.52 318.59C155.66 318.35 156.83 318.02 158 317.57C159.14 317.12 160.4 316.52 161.75 315.74C163.1 314.96 164.36 314.12 165.53 313.22C166.7 312.32 167.84 311.33 169.01 310.22C195.11 285.17 215.9 254.691 231.38 218.781C246.86 182.901 254.6 149.421 254.6 118.341V55.4307C254.6 49.8807 253.19 45.7107 250.37 42.8907ZM133.01 134.27C140.93 120.59 150.5 110.511 161.72 104.031C172.94 97.5507 182.51 96.5607 190.46 101.091C191.72 101.811 192.89 102.62 193.94 103.58C199.55 108.5 202.34 116.36 202.34 127.19C202.34 140.06 198.38 153.321 190.46 167.001C184.58 177.111 177.83 185.241 170.18 191.421C167.48 193.611 164.66 195.531 161.72 197.241C154.88 201.201 148.64 203.09 143 202.94C139.43 202.82 136.1 201.921 133.01 200.151C127.37 196.941 123.74 191.63 122.15 184.19C121.46 181.16 121.13 177.8 121.13 174.08C121.13 161.21 125.09 147.92 133.01 134.27ZM192.05 251.811C183.23 265.851 173.15 278.301 161.72 289.101C150.32 291.471 140.21 290.721 131.42 286.791C125 283.941 119.15 280.13 113.9 275.36C111.98 273.59 110.12 271.7 108.35 269.66C109.82 267.95 111.29 266.271 112.79 264.621C119.72 256.911 126.92 249.891 134.33 243.531C138.86 239.601 143.42 236.001 148.04 232.701C152.57 229.461 157.13 226.521 161.72 223.851C171.02 218.511 180.14 214.491 189.14 211.851C198.14 209.211 206.78 207.951 215.09 208.011C208.52 223.131 200.84 237.741 192.05 251.811Z" fill="#FFDBCC" stroke="#111111" stroke-width="3"/>
<path d="M202.371 127.191C202.371 140.061 198.411 153.321 190.491 167.001C184.611 177.111 177.861 185.241 170.211 191.421C167.511 193.611 164.691 195.531 161.751 197.241C154.911 201.201 148.67 203.091 143.03 202.941C139.46 202.821 136.131 201.921 133.041 200.151C127.401 196.941 123.771 191.631 122.181 184.191C121.491 181.161 121.161 177.801 121.161 174.081C121.161 161.211 125.121 147.921 133.041 134.271C140.961 120.591 150.531 110.511 161.751 104.031C172.971 97.5508 182.541 96.5611 190.491 101.091C191.751 101.811 192.921 102.621 193.971 103.581C199.581 108.501 202.371 116.361 202.371 127.191Z" fill="#FFB693" stroke="#111111" stroke-width="3"/>
<path d="M48.4399 282.83C50.0899 283.79 51.7996 284.63 53.5396 285.38L48.4399 282.83Z" fill="#FFDBCC" stroke="#111111" stroke-width="3"/>
<path d="M161.75 289.1C150.35 291.47 140.24 290.72 131.45 286.79C125.03 283.94 119.18 280.13 113.93 275.36C112.01 273.59 110.15 271.7 108.38 269.66C109.85 267.95 111.32 266.27 112.82 264.62L120.47 268.46L161.75 289.1Z" fill="#FFB693" stroke="#111111" stroke-width="3" stroke-linejoin="round"/>
<path d="M215.12 208.01C208.55 223.13 200.87 237.74 192.08 251.81C183.26 265.85 173.18 278.3 161.75 289.1L120.47 268.46L112.82 264.62C119.75 256.91 126.95 249.89 134.36 243.53C138.89 239.6 143.45 236 148.07 232.7C152.6 229.46 157.16 226.52 161.75 223.85C171.05 218.51 180.17 214.49 189.17 211.85C198.17 209.21 206.81 207.95 215.12 208.01Z" fill="#FFB693" stroke="#111111" stroke-width="3" stroke-linejoin="round"/>
<path d="M247.16 40.5812C244.94 39.4712 242.39 39.1412 239.51 39.5012L194.6 46.1015L169.88 49.7312C167.18 50.2112 164.48 51.2015 161.75 52.7615C159.05 54.3215 156.35 56.4512 153.65 59.1212L136.58 76.3112L84.0203 129.262C79.5803 133.852 75.9503 139.161 73.1303 145.221C70.3403 151.251 68.9303 157.071 68.9303 162.621V225.531C68.9303 236.901 69.9803 247.401 72.0503 257.031C74.7203 269.451 79.1 280.401 85.28 289.911C87.35 293.181 89.63 296.272 92.15 299.182C97.04 304.881 102.44 309.411 108.38 312.801L53.5403 285.381L48.4403 282.831H48.3803C42.4403 279.411 37.04 274.882 32.15 269.182C16.6701 251.152 8.93018 226.611 8.93018 195.531V132.621C8.93018 127.071 10.3402 121.251 13.1302 115.221C15.9502 109.161 19.5803 103.852 24.0203 99.2615L93.65 29.1214C96.35 26.4514 99.0503 24.3214 101.75 22.7614C104.48 21.2014 107.18 20.2113 109.88 19.7313L179.51 9.50124C182.51 9.11124 185.15 9.5013 187.43 10.7013L187.64 10.8214L247.16 40.5812Z" fill="#FFB693" stroke="#111111" stroke-width="3"/>
</svg>
