<svg width="90" height="86" viewBox="0 0 90 86" fill="none" xmlns="http://www.w3.org/2000/svg">
<path d="M64.6172 22.5881C65.2061 23.4712 65.9809 23.9128 67.0347 23.8497M64.6172 22.5881C64.188 21.9512 63.7279 21.3248 63.2665 20.6968C62.9283 20.2364 62.5894 19.775 62.2617 19.3081L67.0347 23.8497M64.6172 22.5881L64.4092 22.7268C64.4093 22.727 64.4093 22.7271 64.4094 22.7272M64.6172 22.5881L64.4099 22.7278C64.4097 22.7276 64.4096 22.7274 64.4094 22.7272M67.0347 23.8497C67.9438 23.7866 68.853 23.7516 69.7622 23.7165C70.2167 23.699 70.6713 23.6815 71.1258 23.6605M67.0347 23.8497L71.1258 23.6605M64.4094 22.7272C64.7212 23.1947 65.0908 23.5579 65.5339 23.7943C65.9785 24.0315 66.4825 24.1332 67.0496 24.0993L67.052 24.0991C67.9575 24.0363 68.8598 24.0015 69.7665 23.9666C70.222 23.949 70.6787 23.9314 71.1374 23.9102L71.1374 23.9102L71.1417 23.91C71.7208 23.8731 72.255 23.544 72.5745 23.041M64.4094 22.7272C63.9806 22.0909 63.5283 21.4753 63.0714 20.8535C62.7332 20.3933 62.3925 19.9297 62.057 19.4517L62.0489 19.4401L62.0492 19.4399C61.74 18.9416 61.1185 18.7298 60.5753 18.9141L60.564 18.9179L60.5639 18.9176C58.3952 19.5393 56.3475 20.5021 54.4818 21.7448M72.5745 23.041L54.3273 21.5474M72.5745 23.041C72.8249 22.6745 73.0591 22.301 73.2909 21.9276C73.3226 21.8764 73.3544 21.8252 73.3861 21.774C73.5872 21.4494 73.7881 21.1254 74.0004 20.8013L74.002 20.7988C74.4053 20.1675 74.8059 19.5403 75.237 18.9136L75.2435 18.9042L75.249 18.8943C75.559 18.3423 76.2316 18.1039 76.8292 18.3419L76.8291 18.3421L76.839 18.3455C78.7267 19.0068 80.614 19.6995 82.4699 20.4234M72.5745 23.041C72.5753 23.0397 72.5761 23.0384 72.577 23.0371L72.3656 22.9035M72.5745 23.041C72.5736 23.0422 72.5728 23.0434 72.572 23.0446L72.3656 22.9035M72.5745 23.041L71.1258 23.6605M54.4818 21.7448C54.4862 21.7408 54.4906 21.7368 54.495 21.7328L54.3273 21.5474M54.4818 21.7448C54.4766 21.7483 54.4713 21.7518 54.466 21.7553L54.3273 21.5474M54.4818 21.7448C54.2482 21.9606 54.1057 22.2155 54.0807 22.5115M54.3273 21.5474C54.0483 21.7997 53.8624 22.1151 53.8314 22.4935M54.0807 22.5115C54.0808 22.5106 54.0809 22.5097 54.0809 22.5088L53.8314 22.4935M54.0807 22.5115C54.0513 22.9946 54.0814 23.4726 54.1981 23.9477L54.2009 23.9591L54.2007 23.9592C54.4472 25.2135 54.7245 26.4683 55.0027 27.7265M54.0807 22.5115C54.0807 22.5123 54.0806 22.5131 54.0805 22.5139L53.8314 22.4935M53.8314 22.4935C53.8004 22.9981 53.8314 23.5028 53.9554 24.0074L55.0027 27.7265M55.0027 27.7265C55.0014 27.7224 55.0001 27.7183 54.9988 27.7142L54.7612 27.7921L55.0053 27.7381C55.0044 27.7342 55.0036 27.7303 55.0027 27.7265ZM55.0027 27.7265C55.2121 28.3814 55.0307 29.0954 54.6115 29.5932L54.6034 29.6028L54.6031 29.6026L54.5564 29.6527C53.4268 30.8643 52.3208 32.0507 51.1535 33.176L51.1418 33.1873L51.1287 33.197C50.7437 33.4819 50.2883 33.6245 49.8332 33.6245H49.8198L49.8198 33.6241C49.2233 33.5922 48.6843 33.5281 48.1129 33.3995M55.0027 27.7265L41 39.7769M48.1129 33.3995C48.1158 33.3999 48.1186 33.4003 48.1214 33.4008L48.1595 33.1537L48.1044 33.3975C48.1072 33.3982 48.1101 33.3988 48.1129 33.3995ZM48.1129 33.3995C47.693 33.3346 47.2824 33.2611 46.8753 33.1882C46.2693 33.0796 45.671 32.9725 45.0606 32.8972L45.0552 32.8965L45.0552 32.8965C44.3088 32.788 43.5556 33.2513 43.3142 33.9885L43.311 33.9982L43.307 34.0077C43.0309 34.6632 42.7851 35.3195 42.5374 35.9812M42.5374 35.9812L42.5387 35.9771L42.3017 35.8976L42.5359 35.9852C42.5364 35.9839 42.5369 35.9826 42.5374 35.9812ZM42.5374 35.9812L41.2595 39.7894M41.2595 39.7894L41.2436 39.7206L41 39.7769M41.2595 39.7894L41.365 40.2455M41.2595 39.7894L41.237 39.8564L41 39.7769M41 39.7769L41.365 40.2455M41.365 40.2455C41.3638 40.2421 41.3627 40.2387 41.3616 40.2352L41.124 40.313L41.3675 40.2567L41.365 40.2455ZM41.365 40.2455C41.6148 40.9948 42.2444 41.4232 42.9335 41.8694L42.9351 41.8704C43.4599 42.216 43.9927 42.5539 44.5277 42.8931L44.5285 42.8936C45.0614 43.2316 45.5964 43.5709 46.124 43.9182M41.365 40.2455L42.7976 42.0792C43.3245 42.4262 43.8592 42.7652 44.3938 43.1042C44.9284 43.4433 45.4631 43.7823 45.99 44.1293M46.124 43.9182C46.1228 43.9174 46.1215 43.9167 46.1203 43.9159L45.99 44.1293M46.124 43.9182C46.1252 43.919 46.1263 43.9197 46.1275 43.9205L45.99 44.1293M46.124 43.9182C46.6643 44.25 46.9817 44.8655 46.9838 45.4792M45.99 44.1293C46.4549 44.4131 46.7338 44.9493 46.7338 45.4854M71.1258 23.6605C71.6217 23.6289 72.0867 23.3451 72.3656 22.9035M46.7338 45.4854L46.9835 45.4735C46.9836 45.4754 46.9837 45.4773 46.9838 45.4792M46.7338 45.4854C46.7545 45.9165 46.7717 46.3475 46.7889 46.7786C46.8234 47.6406 46.8578 48.5027 46.9198 49.3647M46.7338 45.4854H46.9838C46.9838 45.4834 46.9838 45.4813 46.9838 45.4792M46.9838 45.4792C47.0046 45.9127 47.0218 46.3439 47.039 46.7741C47.0732 47.6322 47.1073 48.4858 47.1688 49.3427M46.9198 49.3647L47.1684 49.3383C47.1685 49.3398 47.1687 49.3412 47.1688 49.3427M46.9198 49.3647C47.0438 50.5317 46.4549 51.6671 45.4631 52.2348M46.9198 49.3647L47.1691 49.3468C47.169 49.3454 47.1689 49.344 47.1688 49.3427M47.1688 49.3427C47.3011 50.6035 46.6671 51.8296 45.595 52.4473M45.4631 52.2348L45.6019 52.4427C45.5996 52.4442 45.5973 52.4458 45.595 52.4473M45.4631 52.2348L45.5873 52.4518C45.5898 52.4503 45.5924 52.4488 45.595 52.4473M45.4631 52.2348C44.4713 52.8971 43.5105 53.6225 42.5497 54.3479L42.1307 56.5252M45.595 52.4473C44.6127 53.1037 43.6599 53.823 42.7003 54.5474L42.698 54.5492C42.2683 54.8658 42.0558 55.1394 41.9768 55.4208C41.8977 55.7024 41.9381 56.0425 42.1307 56.5252M42.1307 56.5252C42.1305 56.5249 42.1304 56.5246 42.1303 56.5243L41.8988 56.6187L42.131 56.526C42.1309 56.5257 42.1308 56.5255 42.1307 56.5252ZM42.1307 56.5252C42.8128 58.1974 43.4924 59.8633 44.2333 61.4654L44.2335 61.4658C44.5717 62.201 44.843 62.545 45.1684 62.7011C45.4975 62.8591 45.9403 62.8544 46.7115 62.7136M42.1307 56.5252L44.0064 61.5703C44.6882 63.0526 45.2151 63.2419 46.7648 62.958M46.7115 62.7136L46.7032 62.7158L46.7648 62.958M46.7115 62.7136L46.8272 62.6842L46.8316 62.6831L46.8316 62.6831C47.2109 62.5941 47.5882 62.5085 47.9635 62.4234C48.7916 62.2357 49.6097 62.0502 50.4162 61.8343M46.7115 62.7136C46.7142 62.7131 46.717 62.7126 46.7198 62.7121L46.7648 62.958M46.7648 62.958L50.4162 61.8343M50.4162 61.8343C50.4151 61.8346 50.414 61.835 50.4129 61.8353L50.4841 62.0749L50.4194 61.8335C50.4183 61.8337 50.4173 61.834 50.4162 61.8343ZM50.4162 61.8343C51.2426 61.5903 52.1414 61.7996 52.7655 62.4314M50.4162 61.8343L52.5916 62.6111M52.7655 62.4314C52.7641 62.43 52.7626 62.4287 52.7611 62.4273L52.5916 62.6111M52.7655 62.4314C52.767 62.4329 52.7685 62.4344 52.7699 62.4359L52.5916 62.6111M52.7655 62.4314C53.7573 63.3461 54.718 64.2606 55.6771 65.1736L55.6772 65.1737M52.5916 62.6111C53.5834 63.5257 54.5442 64.4404 55.505 65.355M55.6772 65.1737L55.505 65.355M55.6772 65.1737L55.6774 65.1739L55.505 65.355M55.6772 65.1737C56.1984 65.6688 56.4426 66.3435 56.3739 67.0489C56.3738 67.0496 56.3738 67.0503 56.3737 67.051L56.3737 67.0517C56.343 67.4266 56.3114 67.8129 56.2479 68.2009M55.505 65.355L56.0009 68.162M56.2479 68.2009C56.2478 68.2014 56.2477 68.2019 56.2477 68.2024L56.0009 68.162M56.2479 68.2009C56.248 68.2004 56.2481 68.1998 56.2481 68.1993L56.0009 68.162M56.2479 68.2009C56.1547 68.817 56.0539 69.4329 55.9533 70.047L55.9532 70.0474C55.8524 70.6627 55.752 71.2762 55.6592 71.8894L55.6576 71.9003L55.6574 71.9002C55.5544 72.424 55.8136 72.9798 56.2789 73.2429L56.2914 73.2499L56.3029 73.2583C56.5248 73.4196 56.7152 73.5562 56.9269 73.6369L56.9278 73.6373C57.3169 73.7875 57.7044 73.9376 58.0909 74.0873C59.4915 74.63 60.8791 75.1676 62.2861 75.686L62.2888 75.687C62.6804 75.8364 63.1265 75.7138 63.4022 75.3823L63.4091 75.374L63.4092 75.3741C63.7761 74.9697 64.1072 74.571 64.4069 74.1137M56.0009 68.162C55.908 68.777 55.8072 69.392 55.7065 70.007C55.6058 70.622 55.505 71.237 55.4121 71.852C55.2881 72.4828 55.598 73.1451 56.1559 73.4605C56.3729 73.6182 56.5898 73.7759 56.8378 73.8705C57.2262 74.0205 57.6133 74.1704 57.9995 74.32C59.4004 74.8628 60.7905 75.4014 62.1997 75.9206C62.6956 76.1098 63.2535 75.9521 63.5944 75.5421C63.9663 75.1321 64.3072 74.7221 64.6172 74.249M64.4069 74.1137C64.4065 74.1143 64.4062 74.1149 64.4058 74.1155L64.6172 74.249M64.4069 74.1137C64.4073 74.1132 64.4077 74.1126 64.4081 74.112L64.6172 74.249M64.4069 74.1137C64.9612 73.2362 65.4852 72.3266 66.0122 71.4118L66.2289 71.5366M64.6172 74.249C65.1751 73.3659 65.702 72.4513 66.2289 71.5366M66.2289 71.5366L66.012 71.4123C66.4864 70.5847 67.3376 70.0599 68.2964 70.0566M66.2289 71.5366L68.2964 70.0566M68.2964 70.0566L68.2879 70.0572L68.3054 70.3066M68.2964 70.0566C68.2994 70.0566 68.3024 70.0566 68.3054 70.0566V70.3066M68.2964 70.0566L68.4523 70.0457C69.2915 69.9867 70.1117 69.929 70.9597 69.8992M68.2964 70.0566L70.9709 70.1489M68.3054 70.3066C68.3601 70.3028 68.4146 70.299 68.4691 70.2951C69.3099 70.236 70.1267 70.1785 70.9709 70.1489M68.3054 70.3066L70.9709 70.1489M70.9709 70.1489L70.957 69.8993C70.9579 69.8993 70.9588 69.8992 70.9597 69.8992M70.9709 70.1489L70.9621 69.8991C70.9613 69.8991 70.9605 69.8991 70.9597 69.8992M70.9709 70.1489C73.2334 70.0228 73.5744 70.1805 74.8761 72.0728M70.9597 69.8992C72.0773 69.8369 72.7952 69.836 73.3938 70.1295C73.9923 70.4228 74.4368 70.9932 75.0802 71.9283M75.0802 71.9283C75.0795 71.9275 75.0789 71.9266 75.0782 71.9257L74.8761 72.0728M75.0802 71.9283C75.0808 71.9293 75.0814 71.9302 75.0821 71.9311L74.8761 72.0728M75.0802 71.9283C75.3322 72.2746 75.581 72.6266 75.8286 72.9769C76.1978 73.4992 76.5644 74.0178 76.9351 74.5082C77.2252 74.892 77.5082 75.0994 77.8006 75.1786C78.0918 75.2574 78.4341 75.2201 78.8664 75.0295L78.8693 75.0282C80.5705 74.3043 82.24 73.5492 83.909 72.7315M74.8761 72.0728C75.124 72.4134 75.372 72.7641 75.6199 73.1148C75.9919 73.6409 76.3638 74.167 76.7357 74.659C77.3556 75.479 78.0374 75.6682 78.9672 75.2582C80.6719 74.5328 82.3456 73.7759 84.0192 72.9559M83.909 72.7315C83.9088 72.7316 83.9085 72.7317 83.9083 72.7318L84.0192 72.9559M83.909 72.7315C83.9091 72.7315 83.9091 72.7314 83.9092 72.7314L84.0192 72.9559M83.909 72.7315C84.4646 72.4564 84.7508 72.205 84.889 71.9082C85.0288 71.6077 85.0419 71.2085 84.9207 70.5759M84.0192 72.9559C85.166 72.3882 85.4139 71.8205 85.166 70.5274M85.166 70.5274L84.9209 70.5768C84.9209 70.5765 84.9208 70.5762 84.9207 70.5759M85.166 70.5274C84.918 69.2974 84.6391 68.0674 84.3292 66.8689M85.166 70.5274L84.9205 70.5745C84.9205 70.5749 84.9206 70.5754 84.9207 70.5759M84.9207 70.5759C84.6738 69.3511 84.3962 68.1268 84.0879 66.9343M84.3292 66.8689L84.0887 66.9375C84.0885 66.9364 84.0882 66.9354 84.0879 66.9343M84.3292 66.8689C84.0502 65.8912 84.2982 64.8504 85.011 64.1565M84.3292 66.8689L84.0871 66.9315C84.0874 66.9324 84.0876 66.9334 84.0879 66.9343M84.0879 66.9343C83.7878 65.8784 84.0525 64.745 84.8308 63.9831M85.011 64.1565L84.8256 63.9889C84.8273 63.9869 84.8291 63.985 84.8308 63.9831M85.011 64.1565C85.2964 63.8409 85.5967 63.5303 85.8979 63.2187C86.3492 62.7519 86.8027 62.2828 87.2116 61.7911C87.9864 60.8765 88.8852 60.498 90.032 60.7818M85.011 64.1565L84.8366 63.9774C84.8347 63.9793 84.8328 63.9812 84.8308 63.9831M84.8308 63.9831C85.1178 63.6659 85.4199 63.3534 85.7197 63.0434C85.7943 62.9662 85.8688 62.8891 85.9428 62.8122C86.3181 62.4225 86.6846 62.0338 87.0193 61.6313L87.0208 61.6295C87.4276 61.1493 87.8794 60.7952 88.3949 60.6028C88.9046 60.4127 89.458 60.3876 90.0619 60.5318M90.0619 60.5318C90.0552 60.5318 90.0487 60.5318 90.0424 60.5318L90.032 60.5318V60.7818M90.0619 60.5318C90.0719 60.5342 90.082 60.5367 90.0921 60.5392L90.032 60.7818M90.0619 60.5318C90.1437 60.532 90.2553 60.5346 90.3714 60.5702M90.032 60.7818C90.125 60.7818 90.2179 60.7818 90.3109 60.8134M90.3109 60.8134L90.3548 60.5673C90.3603 60.5682 90.3658 60.5692 90.3714 60.5702M90.3109 60.8134C90.4719 60.8421 90.6324 60.8707 90.7925 60.8993C91.8652 61.091 92.9204 61.2795 93.9992 61.4442C94.619 61.5703 95.2699 61.2549 95.5799 60.6872C95.7348 60.4349 95.8898 60.1826 95.9828 59.9303C96.6336 58.2274 97.2534 56.493 97.8732 54.7585L97.8734 54.7579C98.1833 54.0325 97.9044 53.1494 97.2535 52.7079C96.7886 52.3609 96.3237 52.0455 95.8588 51.7617C95.4714 51.5251 95.0839 51.2965 94.6965 51.0678C94.3091 50.8392 93.9217 50.6105 93.5343 50.374C92.8834 49.964 92.4495 49.2386 92.4185 48.4501M90.3109 60.8134L90.3912 60.5766C90.3846 60.5744 90.378 60.5722 90.3714 60.5702M90.3714 60.5702C90.5269 60.5979 90.6819 60.6256 90.8365 60.6532C91.9095 60.8449 92.9614 61.0329 94.0369 61.197L94.0491 61.1989L94.049 61.1992C94.5562 61.3024 95.1005 61.0435 95.3604 60.5674L95.3666 60.5562L95.3668 60.5564C95.5249 60.299 95.6654 60.0685 95.7482 59.8438L95.7492 59.841C96.399 58.1409 97.0179 56.4089 97.638 54.6738L97.6405 54.6666L97.6435 54.6597C97.9044 54.049 97.6693 53.292 97.1132 52.9148L97.1038 52.9084L97.104 52.9082C96.6449 52.5656 96.1864 52.2546 95.7285 51.9751C95.343 51.7397 94.9571 51.5119 94.5695 51.2831L94.568 51.2823C94.1813 51.0541 93.7928 50.8247 93.404 50.5874L93.401 50.5855C92.6823 50.1327 92.2032 49.333 92.1687 48.4604M92.1687 48.4604C92.1687 48.4605 92.1687 48.4606 92.1687 48.4608L92.4185 48.4501M92.1687 48.4604C92.1687 48.4602 92.1687 48.4601 92.1687 48.4599L92.4185 48.4501M92.1687 48.4604C92.1067 47.0081 92.0756 45.5878 92.0447 44.139M92.4185 48.4501C92.3565 46.9993 92.3255 45.5801 92.2945 44.1293M92.2945 44.1293L92.0449 44.1437C92.0448 44.1421 92.0448 44.1406 92.0447 44.139M92.2945 44.1293C92.2635 43.5931 92.5115 43.0569 92.9144 42.71M92.2945 44.1293L92.0446 44.1346C92.0446 44.1361 92.0446 44.1375 92.0447 44.139M92.0447 44.139C92.0106 43.5212 92.2948 42.9142 92.7502 42.5215M92.9144 42.71L92.749 42.5225C92.7494 42.5222 92.7498 42.5219 92.7502 42.5215M92.9144 42.71C93.3793 42.3 93.9062 41.89 94.4021 41.5115C94.6733 41.3076 94.9489 41.1128 95.2239 40.9184C95.6719 40.6018 96.1182 40.2863 96.5407 39.9346C97.5635 39.1146 97.7494 38.3892 97.2225 37.1907C96.5097 35.5191 95.7658 33.8791 94.991 32.2391C94.5261 31.2298 93.7822 30.9144 92.7284 31.1352M92.9144 42.71L92.7513 42.5206C92.7509 42.5209 92.7505 42.5212 92.7502 42.5215M92.7502 42.5215C93.222 42.1055 93.7545 41.6913 94.2504 41.3128L94.2518 41.3117C94.5363 41.0978 94.817 40.8995 95.0935 40.7042C95.5338 40.3933 95.9635 40.0898 96.3807 39.7425L96.3843 39.7395L96.3843 39.7395C96.877 39.3445 97.1309 39.001 97.2202 38.6439C97.3094 38.2874 97.247 37.8675 96.9937 37.2913L96.9925 37.2888C96.2812 35.6206 95.5387 33.9836 94.7649 32.3459L94.7639 32.3437C94.5487 31.8764 94.2824 31.5976 93.9738 31.452C93.6631 31.3053 93.2735 31.2765 92.7801 31.3798M92.7801 31.3798C92.7802 31.3798 92.7804 31.3797 92.7805 31.3797L92.7284 31.1352M92.7801 31.3798C92.7799 31.3798 92.7798 31.3799 92.7797 31.3799L92.7284 31.1352M92.7801 31.3798C92.153 31.5134 91.5256 31.661 90.892 31.8102L90.7827 31.8359C90.1155 31.9929 89.4413 32.1506 88.7588 32.2928M92.7284 31.1352C92.0985 31.2694 91.4686 31.4176 90.8353 31.5667C90.1289 31.7329 89.4184 31.9002 88.6993 32.0498M88.6993 32.0498L88.7678 32.2903C88.7648 32.2911 88.7618 32.292 88.7588 32.2928M88.6993 32.0498C87.9244 32.2706 87.0566 32.0183 86.4987 31.4191M88.6993 32.0498L88.7502 32.2946C88.7531 32.294 88.7559 32.2934 88.7588 32.2928M88.7588 32.2928C87.8932 32.5356 86.9341 32.2529 86.3166 31.5903M86.4987 31.4191L86.3176 31.5914C86.3173 31.5911 86.3169 31.5907 86.3166 31.5903M86.4987 31.4191C85.7246 30.6059 84.9103 29.8337 84.1043 29.0695C83.9099 28.8852 83.716 28.7013 83.5233 28.5175C83.0584 28.0444 82.8105 27.4136 82.9034 26.7513M86.4987 31.4191L86.3157 31.5894C86.316 31.5897 86.3163 31.59 86.3166 31.5903M86.3166 31.5903C85.5477 30.7827 84.7395 30.0164 83.9343 29.2528C83.7394 29.068 83.5447 28.8834 83.3508 28.6984L83.3449 28.6928L83.345 28.6927C82.8356 28.1743 82.5531 27.4723 82.6545 26.7264M82.6545 26.7264C82.6543 26.7296 82.6541 26.7328 82.6539 26.736L82.9034 26.7513M82.6545 26.7264C82.655 26.7231 82.6554 26.7198 82.6559 26.7165L82.9034 26.7513M82.6545 26.7264C82.6862 26.2164 82.749 25.7065 82.8427 25.1969M82.9034 26.7513C82.9344 26.2467 82.9964 25.742 83.0894 25.2374M83.0894 25.2374L82.842 25.2017C82.8422 25.2001 82.8424 25.1985 82.8427 25.1969M83.0894 25.2374C83.1484 24.8294 83.2208 24.426 83.293 24.0237C83.4106 23.3686 83.5277 22.7163 83.5853 22.052M83.0894 25.2374L82.8435 25.1921C82.8433 25.1937 82.843 25.1953 82.8427 25.1969M82.8427 25.1969C82.9022 24.7859 82.9754 24.3782 83.0475 23.9765C83.07 23.8509 83.0925 23.7258 83.1144 23.6014C83.207 23.0751 83.2906 22.5562 83.3361 22.0319M83.5853 22.052L83.336 22.0331C83.336 22.0327 83.3361 22.0323 83.3361 22.0319M83.5853 22.052C83.6473 21.232 83.3374 20.5066 82.5625 20.1912M83.5853 22.052L83.3362 22.0304C83.3362 22.0309 83.3362 22.0314 83.3361 22.0319M83.3361 22.0319C83.3921 21.2874 83.1143 20.6865 82.4699 20.4234M82.5625 20.1912L82.4717 20.4241C82.4711 20.4239 82.4705 20.4236 82.4699 20.4234M82.5625 20.1912C80.7029 19.4658 78.8123 18.7719 76.9217 18.1096C76.2088 17.8258 75.403 18.1096 75.0311 18.7719C74.5972 19.4026 74.1943 20.0333 73.7915 20.664L73.7913 20.6643C73.5771 20.9912 73.3745 21.3181 73.1735 21.6424C72.909 22.0691 72.6473 22.4914 72.3656 22.9035M82.5625 20.1912L82.4683 20.4227C82.4688 20.4229 82.4693 20.4232 82.4699 20.4234M57.1457 47.032L57.1457 47.0309C57.1457 39.5016 63.5918 34.417 69.2984 34.4491C69.2985 34.4491 69.2986 34.4491 69.2986 34.4491L69.2972 34.6991C76.0848 34.7306 81.4777 40.1554 81.4777 46.9993L57.1457 47.032ZM57.1457 47.032C57.1773 53.8823 62.6143 59.4535 69.3568 59.518H69.3592C77.2949 59.518 82.0717 52.5426 81.7277 46.9915L57.1457 47.032Z" fill="#FFEDE6" stroke="#111111" stroke-width="0.5"/>
<path d="M50.2436 29.1607C50.7245 28.6594 50.7006 28.3023 50.3608 27.7493C50.021 27.1964 49.6571 26.6502 49.2692 26.111M50.2436 29.1607L51.1351 21.9907L50.9908 22.0319M50.2436 29.1607C49.7423 29.687 49.2243 30.204 48.7114 30.7158C48.5284 30.8983 48.3461 31.0803 48.1655 31.2617C47.8563 31.6359 47.324 31.6839 46.9326 31.4056C46.619 31.2178 46.2994 31.0086 45.9797 30.7994C45.8198 30.6948 45.66 30.5902 45.5009 30.4883M50.2436 29.1607L22.5601 20.8648L22.6743 20.8322L22.6854 20.8711M49.2692 26.111C48.9397 25.6851 48.8849 25.1288 49.1117 24.6481M49.2692 26.111L49.1678 26.184C49.1682 26.1846 49.1686 26.1852 49.169 26.1857M49.2692 26.111L49.1704 26.1875C49.1699 26.1869 49.1695 26.1863 49.169 26.1857M49.1117 24.6481C49.1922 24.4483 49.2805 24.2501 49.369 24.0513C49.515 23.7237 49.6616 23.3946 49.7749 23.0549M49.1117 24.6481L48.9986 24.5947C48.9981 24.5958 48.9976 24.5969 48.9971 24.598M49.1117 24.6481L48.9958 24.6013C48.9962 24.6002 48.9966 24.5991 48.9971 24.598M49.7749 23.0549C49.9262 22.4917 50.4105 22.0935 50.9908 22.0319M49.7749 23.0549L49.6563 23.0153C49.656 23.0165 49.6556 23.0176 49.6552 23.0188M49.7749 23.0549L49.6542 23.0224C49.6545 23.0212 49.6549 23.02 49.6552 23.0188M50.9908 22.0319L50.9776 21.9076C50.974 21.908 50.9704 21.9084 50.9667 21.9088M50.9908 22.0319L50.9565 21.9117L50.9568 21.9116L50.9571 21.9115L50.9574 21.9114L50.9577 21.9114L50.958 21.9113L50.9582 21.9112L50.9585 21.9111L50.9588 21.911L50.9591 21.911L50.9594 21.9109L50.9596 21.9108L50.9599 21.9107L50.9602 21.9106L50.9605 21.9106L50.9608 21.9105L50.9611 21.9104L50.9613 21.9103L50.9616 21.9102L50.9619 21.9101L50.9622 21.9101L50.9625 21.91L50.9627 21.9099L50.963 21.9098L50.9633 21.9097L50.9636 21.9097L50.9639 21.9096L50.9641 21.9095L50.9644 21.9094L50.9647 21.9093L50.965 21.9093L50.9653 21.9092L50.9656 21.9091L50.9658 21.909L50.9661 21.9089L50.9664 21.9089L50.9667 21.9088L50.9667 21.9088M50.9667 21.9088L50.967 21.9087L50.9672 21.9086L50.9675 21.9085L50.9678 21.9085L50.9681 21.9084L50.9684 21.9083L50.9687 21.9082L50.9689 21.9081L50.9692 21.9081L50.9695 21.908L50.9698 21.9079L50.9701 21.9078L50.9703 21.9077L50.9706 21.9077L50.9709 21.9076L50.9712 21.9075L50.9715 21.9074L50.9718 21.9073L50.972 21.9073L50.9723 21.9072L50.9726 21.9071L50.9729 21.907L50.9732 21.9069L50.9734 21.9069L50.9737 21.9068L50.974 21.9067L50.9743 21.9066L50.9746 21.9065L50.9749 21.9064L50.9751 21.9064L50.9754 21.9063L50.9757 21.9062L50.976 21.9061L50.9763 21.906L50.9765 21.906L50.9768 21.9059L50.9771 21.9058L50.9774 21.9057L50.9777 21.9056L50.978 21.9056L50.9782 21.9055L50.9785 21.9054L50.9788 21.9053L50.9791 21.9052L50.9794 21.9052L50.9796 21.9051L50.9799 21.905L50.9802 21.9049L50.9805 21.9048L50.9808 21.9048L50.9811 21.9047L50.9813 21.9046L50.9816 21.9045L50.9819 21.9044L50.9822 21.9044L50.9825 21.9043L50.9827 21.9042L50.983 21.9041L50.9833 21.904L50.9836 21.904L50.9839 21.9039L50.9841 21.9038L50.9844 21.9037L50.9847 21.9036L50.985 21.9036L50.9853 21.9035L50.9856 21.9034L50.9858 21.9033L50.9861 21.9032L50.9864 21.9032L50.9867 21.9031L50.987 21.903L50.9872 21.9029L50.9875 21.9028L50.9878 21.9028L50.9881 21.9027L50.9884 21.9026L50.9887 21.9025L50.9889 21.9024L50.9892 21.9023L50.9895 21.9023L50.9898 21.9022L50.9901 21.9021L50.9903 21.902L50.9906 21.9019L50.9909 21.9019L50.9912 21.9018L50.9915 21.9017L50.9918 21.9016L50.992 21.9015L50.9923 21.9015L50.9926 21.9014L50.9929 21.9013L50.9932 21.9012L50.9934 21.9011L50.9937 21.9011L50.994 21.901L50.9943 21.9009L50.9946 21.9008L50.9949 21.9007L50.9951 21.9007L50.9954 21.9006L50.9957 21.9005L50.996 21.9004L50.9963 21.9003L50.9965 21.9003L50.9968 21.9002L50.9971 21.9001L50.9974 21.9L50.9977 21.8999L50.998 21.8999L50.9982 21.8998L50.9985 21.8997L50.9988 21.8996L50.9991 21.8995L50.9994 21.8995L50.9996 21.8994L50.9999 21.8993L51.0002 21.8992L51.0005 21.8991L51.0008 21.8991L51.0011 21.899L51.0013 21.8989L51.0016 21.8988L51.0019 21.8987L51.0022 21.8987L51.0025 21.8986L51.0027 21.8985L51.003 21.8984L51.0033 21.8983L51.0036 21.8982L51.0039 21.8982L51.0042 21.8981L51.0044 21.898L51.0047 21.8979L51.005 21.8978L51.0053 21.8978L51.0056 21.8977L51.0058 21.8976L51.0061 21.8975L51.0064 21.8974L51.0067 21.8974L51.007 21.8973L51.0073 21.8972L51.0075 21.8971L51.0078 21.897L51.0081 21.897L51.0084 21.8969L51.0087 21.8968L51.0089 21.8967L51.0092 21.8966L51.0095 21.8966L51.0098 21.8965L51.0101 21.8964L51.0104 21.8963L51.0106 21.8962L51.0109 21.8962L51.0112 21.8961L51.0115 21.896L51.0118 21.8959L51.012 21.8958L51.0123 21.8958L51.0126 21.8957L51.0129 21.8956L51.0132 21.8955L51.0134 21.8954L51.0137 21.8954L51.014 21.8953L51.0143 21.8952L51.0146 21.8951L51.0149 21.895L51.0151 21.895L51.0154 21.8949L51.0157 21.8948L51.016 21.8947L51.0163 21.8946L51.0165 21.8945L51.0168 21.8945L51.0171 21.8944L51.0174 21.8943L51.0177 21.8942L51.018 21.8941L51.0182 21.8941L51.0185 21.894L51.0188 21.8939L51.0191 21.8938L51.0194 21.8937L51.0196 21.8937L51.0199 21.8936L51.0202 21.8935L51.0205 21.8934L51.0208 21.8933L51.0211 21.8933L51.0213 21.8932L51.0216 21.8931L51.0219 21.893L51.0222 21.8929L51.0225 21.8929L51.0227 21.8928L51.023 21.8927L51.0233 21.8926L51.0236 21.8925L51.0239 21.8925L51.0242 21.8924L51.0244 21.8923L51.0247 21.8922L51.025 21.8921L51.0253 21.8921L51.0256 21.892L51.0258 21.8919L51.0261 21.8918L51.0264 21.8917L51.0267 21.8917L51.027 21.8916L51.0273 21.8915L51.0275 21.8914L51.0278 21.8913L51.0281 21.8913L51.0284 21.8912L51.0287 21.8911L51.0289 21.891L51.0292 21.8909L51.0295 21.8909L51.0298 21.8908L51.0301 21.8907L51.0304 21.8906L51.0306 21.8905L51.0309 21.8904L51.0312 21.8904L51.0315 21.8903L51.0318 21.8902L51.032 21.8901L51.0323 21.89L51.0326 21.89L51.0329 21.8899L51.0332 21.8898L51.0334 21.8897L51.0337 21.8896L51.034 21.8896L51.0343 21.8895L51.0346 21.8894L51.0349 21.8893L51.0351 21.8892L51.0354 21.8892L51.0357 21.8891L51.036 21.889L51.0363 21.8889L51.0365 21.8888L51.0368 21.8888L51.0371 21.8887L51.0374 21.8886L51.0377 21.8885L51.038 21.8884L51.0382 21.8884L51.0385 21.8883L51.0388 21.8882L51.0391 21.8881L51.0394 21.888L51.0396 21.888L51.0399 21.8879L51.0402 21.8878L51.0405 21.8877L51.0408 21.8876L51.0411 21.8876L51.0413 21.8875L51.0416 21.8874L51.0419 21.8873L51.0422 21.8872L51.0425 21.8872L51.0427 21.8871L51.043 21.887L51.0433 21.8869L51.0436 21.8868L51.0439 21.8868L51.0442 21.8867L51.0444 21.8866L51.0447 21.8865L51.045 21.8864L51.0453 21.8863L51.0456 21.8863L51.0458 21.8862L51.0461 21.8861L51.0464 21.886L51.0467 21.8859L51.047 21.8859L51.0473 21.8858L51.0475 21.8857L51.0478 21.8856L51.0481 21.8855L51.0484 21.8855L51.0487 21.8854L51.0489 21.8853L51.0492 21.8852L51.0495 21.8851L51.0498 21.8851L51.0501 21.885L51.0504 21.8849L51.0506 21.8848L51.0509 21.8847L51.0512 21.8847L51.0515 21.8846L51.0518 21.8845L51.052 21.8844L51.0523 21.8843L51.0526 21.8843L51.0529 21.8842L51.0532 21.8841L51.0534 21.884L51.0537 21.8839L51.054 21.8839L51.0543 21.8838L51.0546 21.8837L51.0549 21.8836L51.0551 21.8835L51.0554 21.8835L51.0557 21.8834L51.056 21.8833L51.0563 21.8832L51.0565 21.8831L51.0568 21.8831L51.0571 21.883L51.0574 21.8829L51.0577 21.8828L51.058 21.8827L51.0582 21.8827L51.0585 21.8826L51.0588 21.8825L51.0591 21.8824L51.0594 21.8823L51.0596 21.8822L51.0599 21.8822L51.0602 21.8821L51.0605 21.882L51.0608 21.8819L51.0611 21.8818L51.0613 21.8818L51.0616 21.8817L51.0619 21.8816L51.0622 21.8815L51.0625 21.8814L51.0627 21.8814L51.063 21.8813L51.0633 21.8812L51.0636 21.8811L51.0639 21.881L51.0642 21.881L51.0644 21.8809L51.0647 21.8808L51.065 21.8807L51.0653 21.8806L51.0656 21.8806L51.0658 21.8805L51.0661 21.8804L51.0664 21.8803L51.0667 21.8802L51.067 21.8802L51.0673 21.8801L51.0675 21.88L51.0678 21.8799L51.0681 21.8798L51.0684 21.8798L51.0687 21.8797L51.0689 21.8796L51.0692 21.8795L51.0695 21.8794L51.0698 21.8794L51.0701 21.8793L51.0704 21.8792L51.0706 21.8791L51.0709 21.879L51.0712 21.879L51.0715 21.8789L51.0718 21.8788L51.072 21.8787L51.0723 21.8786L51.0726 21.8786L51.0729 21.8785L51.0732 21.8784L51.0735 21.8783L51.0737 21.8782L51.074 21.8781L51.0743 21.8781L51.0746 21.878L51.0749 21.8779L51.0751 21.8778L51.0754 21.8777L51.0757 21.8777L51.076 21.8776L51.0763 21.8775L51.0766 21.8774L51.0768 21.8773L51.0771 21.8773L51.0774 21.8772L51.0777 21.8771L51.078 21.877L51.0782 21.8769L51.0785 21.8769L51.0788 21.8768L51.0791 21.8767L51.0794 21.8766L51.0796 21.8765L51.0799 21.8765L51.0802 21.8764L51.0805 21.8763L51.0808 21.8762L51.0811 21.8761L51.0813 21.8761L51.0816 21.876L51.0819 21.8759L51.0822 21.8758L51.0825 21.8757L51.0827 21.8757L51.083 21.8756L51.0833 21.8755L51.0836 21.8754L51.0839 21.8753L51.0842 21.8753L51.0844 21.8752L51.0847 21.8751L51.085 21.875L51.0853 21.8749L51.0856 21.8749L51.0858 21.8748L51.0861 21.8747L51.0864 21.8746L51.0867 21.8745L51.087 21.8744L51.0873 21.8744L51.0875 21.8743L51.0878 21.8742L51.0881 21.8741L51.0884 21.874L51.0887 21.874L51.0889 21.8739L51.0892 21.8738L51.0895 21.8737L51.0898 21.8736L51.0901 21.8736L51.0904 21.8735L51.0906 21.8734L51.0909 21.8733L51.0912 21.8732L51.0915 21.8732L51.0918 21.8731L51.092 21.873L51.0923 21.8729L51.0926 21.8728L51.0929 21.8728L51.0932 21.8727L51.0935 21.8726L51.0937 21.8725L51.094 21.8724L51.0943 21.8724L51.0946 21.8723L51.0949 21.8722L51.0951 21.8721L51.0954 21.872L51.0957 21.872L51.096 21.8719L51.0963 21.8718L51.0966 21.8717L51.0968 21.8716L51.0971 21.8716L51.0974 21.8715L51.0977 21.8714L51.098 21.8713L51.0982 21.8712L51.0985 21.8712L51.0988 21.8711L51.0991 21.871L51.0994 21.8709L51.0997 21.8708L51.0999 21.8708L51.1002 21.8707L51.1005 21.8706L51.1008 21.8705L51.11 21.8679L51.1101 21.8682C51.4294 21.8031 51.7547 21.7362 52.0801 21.6694L52.081 21.6692C52.4061 21.6024 52.7312 21.5356 53.0504 21.4704C53.32 21.4154 53.544 21.1981 53.5908 20.8974L53.5932 20.8823L53.599 20.8683C53.6518 20.7424 53.6651 20.6271 53.6718 20.4752C53.6651 19.9967 53.6627 19.5106 53.6603 19.0251L53.6603 19.0251C53.6578 18.5382 53.6554 18.052 53.6487 17.5736L53.6486 17.5688L53.6487 17.5688C53.6577 17.208 53.4055 16.8774 53.0505 16.801L53.0443 16.7997L53.0444 16.7996C52.7618 16.7237 52.487 16.65 52.1964 16.6065L52.189 16.6054L52.189 16.6051C51.9579 16.5562 51.7237 16.5205 51.4853 16.4843L51.4837 16.4841C51.2485 16.4483 51.0092 16.412 50.7719 16.3619C50.2965 16.296 49.9253 15.9991 49.7445 15.5662C49.4418 14.871 49.1634 14.1692 48.8859 13.4696L48.8854 13.4683L48.885 13.4673C48.7729 13.1771 48.7876 12.8223 48.9441 12.5408C49.1175 12.2289 49.2976 11.9415 49.4758 11.6573L49.4765 11.6562L49.4781 11.6536L49.4781 11.6536C49.5594 11.5308 49.6422 11.4083 49.7253 11.2856C49.9055 11.0194 50.0868 10.7516 50.255 10.4739C50.4237 10.1878 50.4873 9.96608 50.4661 9.76801C50.445 9.57072 50.3372 9.37229 50.1085 9.13849L50.1077 9.13764C49.4434 8.44564 48.7619 7.78421 48.0784 7.12101L48.0712 7.11403L48.0715 7.11376C47.7699 6.7701 47.2622 6.73338 46.9114 7.01506L46.9018 7.02273L46.9015 7.02223C46.2675 7.43662 45.6575 7.84422 45.0468 8.25221C44.6687 8.53046 44.1433 8.59574 43.7049 8.37542C43.0494 8.07142 42.3764 7.79787 41.7001 7.52302L41.6976 7.522L41.6976 7.52197C41.3364 7.36595 41.0775 7.06468 40.9713 6.69272L40.9707 6.69044C40.8956 6.42758 40.8257 6.1826 40.7732 5.9058M50.9667 21.9088C50.3432 21.9793 49.8206 22.4091 49.6552 23.0188M49.6552 23.0188C49.5662 23.2848 49.4561 23.5454 49.3405 23.8075C49.3125 23.8711 49.284 23.9349 49.2555 23.9989C49.1672 24.1971 49.0781 24.3972 48.9971 24.598M48.9971 24.598C48.7527 25.1191 48.8122 25.7232 49.169 26.1857M49.169 26.1857C49.5547 26.722 49.9165 27.265 50.2543 27.8148C50.4208 28.0857 50.4947 28.2859 50.4852 28.4678C50.4758 28.6461 50.3842 28.8336 50.1534 29.0741L50.1531 29.0745C49.653 29.5995 49.1366 30.1149 48.624 30.6263C48.4409 30.8091 48.2582 30.9914 48.0769 31.1735L48.0765 31.1731L48.0691 31.1821C47.8049 31.5018 47.3473 31.5471 47.005 31.3037L47.0053 31.3034L46.9968 31.2983C46.6853 31.1118 46.3694 30.905 46.051 30.6967C45.8911 30.5921 45.7306 30.487 45.5697 30.3839M45.5697 30.3839C45.0751 30.0489 44.7461 29.855 44.3925 29.8251C44.0388 29.7953 43.6799 29.9313 43.1317 30.1779L43.1304 30.1785C42.9273 30.2728 42.7227 30.3618 42.5188 30.4505L42.4784 30.4681C42.2628 30.562 42.0483 30.6558 41.8411 30.7541M45.5697 30.3839C45.5701 30.3842 45.5706 30.3845 45.571 30.3848L45.5009 30.4883M45.5697 30.3839C45.5693 30.3836 45.5688 30.3833 45.5683 30.383L45.5009 30.4883M41.8411 30.7541C41.3849 30.9421 41.0477 31.3506 40.9647 31.8562M41.8411 30.7541C41.8421 30.7536 41.8432 30.7532 41.8443 30.7528L41.8916 30.8684M41.8411 30.7541C41.84 30.7546 41.839 30.755 41.838 30.7555L41.8916 30.8684M40.9647 31.8562C40.9297 32.0423 40.8978 32.226 40.866 32.4087C40.8031 32.7707 40.7408 33.1289 40.6569 33.4959M40.9647 31.8562C40.9648 31.8557 40.9648 31.8552 40.9649 31.8547L41.0878 31.8778M40.9647 31.8562C40.9646 31.8567 40.9645 31.8572 40.9644 31.8577L41.0878 31.8778M40.6569 33.4959C40.5811 33.7783 40.5082 34.0479 40.3838 34.3062L40.3836 34.3061L40.3805 34.3137C40.2917 34.534 40.0983 34.6719 39.8668 34.6748M40.6569 33.4959C40.6571 33.4951 40.6573 33.4944 40.6575 33.4936L40.7783 33.5261M40.6569 33.4959C40.6567 33.4967 40.6566 33.4974 40.6564 33.4982L40.7783 33.5261M39.8668 34.6748C39.3603 34.6764 38.8478 34.6797 38.3355 34.683C37.8252 34.6862 37.3152 34.6895 36.8111 34.6911M39.8668 34.6748C39.8671 34.6748 39.8673 34.6748 39.8675 34.6748L39.8679 34.7998M39.8668 34.6748C39.8667 34.6748 39.8666 34.6748 39.8664 34.6748L39.8679 34.7998M36.8111 34.6911C36.692 34.6781 36.5647 34.6439 36.458 34.6031L36.4456 34.5984L36.4325 34.5963C36.1318 34.5495 35.9144 34.3255 35.8594 34.056L35.664 33.0978L35.4685 32.1397L35.4689 32.1396L35.4662 32.1303L35.4659 32.1292L35.4656 32.1281L35.4653 32.127L35.4649 32.1258L35.4646 32.1247L35.4643 32.1236L35.464 32.1224L35.4637 32.1213L35.4633 32.1202L35.463 32.1191L35.4627 32.1179L35.4624 32.1168L35.4621 32.1157L35.4617 32.1146L35.4614 32.1134L35.4611 32.1123L35.4608 32.1112L35.4604 32.1101L35.4601 32.1089L35.4598 32.1078L35.4595 32.1067L35.4592 32.1055L35.4588 32.1044L35.4585 32.1033L35.4582 32.1022L35.4579 32.101L35.4575 32.0999L35.4572 32.0988L35.4569 32.0977L35.4566 32.0965L35.4563 32.0954L35.4559 32.0943L35.4556 32.0931L35.4553 32.092L35.455 32.0909L35.4547 32.0898L35.4543 32.0886L35.454 32.0875L35.4537 32.0864L35.4534 32.0853L35.453 32.0841L35.4527 32.083L35.4524 32.0819L35.4521 32.0808L35.4518 32.0796L35.4514 32.0785L35.4511 32.0774L35.4508 32.0762L35.4505 32.0751L35.4502 32.074L35.4498 32.0729L35.4495 32.0717L35.4492 32.0706L35.4489 32.0695L35.4485 32.0684L35.4482 32.0672L35.4479 32.0661L35.4476 32.065L35.4473 32.0639L35.4469 32.0627L35.4466 32.0616L35.4463 32.0605L35.446 32.0593L35.4456 32.0582L35.4453 32.0571L35.445 32.056L35.4447 32.0548L35.4444 32.0537L35.444 32.0526L35.4437 32.0515L35.4434 32.0503L35.4431 32.0492L35.4428 32.0481L35.4424 32.0469L35.4421 32.0458L35.4418 32.0447L35.4415 32.0436L35.4411 32.0424L35.4408 32.0413L35.4405 32.0402L35.4402 32.0391L35.4399 32.0379L35.4395 32.0368L35.4392 32.0357L35.4389 32.0346L35.4386 32.0334L35.4383 32.0323L35.4379 32.0312L35.4376 32.03L35.4373 32.0289L35.437 32.0278L35.4366 32.0267L35.4363 32.0255L35.436 32.0244L35.4357 32.0233L35.4354 32.0222L35.435 32.021L35.4347 32.0199L35.4344 32.0188L35.4341 32.0176L35.4337 32.0165L35.4334 32.0154L35.4331 32.0143L35.4328 32.0131L35.4325 32.012L35.4321 32.0109L35.4318 32.0098L35.4315 32.0086L35.4312 32.0075L35.4309 32.0064L35.4305 32.0053L35.4302 32.0041L35.4299 32.003L35.4296 32.0019L35.4292 32.0007L35.4289 31.9996L35.4286 31.9985L35.4283 31.9974L35.428 31.9962L35.4276 31.9951L35.4273 31.994L35.427 31.9929L35.4267 31.9917L35.4264 31.9906L35.426 31.9895L35.4257 31.9884L35.4254 31.9872L35.4251 31.9861L35.4247 31.985L35.4244 31.9838L35.4241 31.9827L35.4238 31.9816L35.4235 31.9805L35.4231 31.9793L35.4228 31.9782L35.4225 31.9771L35.4222 31.976L35.4218 31.9748L35.4215 31.9737L35.4212 31.9726L35.4209 31.9714L35.4206 31.9703L35.4202 31.9692L35.4199 31.9681L35.4196 31.9669L35.4193 31.9658L35.419 31.9647L35.4186 31.9636L35.4183 31.9624L35.418 31.9613L35.4177 31.9602L35.4173 31.9591L35.417 31.9579L35.4167 31.9568L35.4164 31.9557L35.4161 31.9545L35.4157 31.9534L35.4154 31.9523L35.4151 31.9512L35.4148 31.95L35.4145 31.9489L35.4141 31.9478L35.4138 31.9467L35.4135 31.9455L35.4132 31.9444L35.4128 31.9433L35.4125 31.9421L35.4122 31.941L35.4119 31.9399L35.4116 31.9388L35.4112 31.9376L35.4109 31.9365L35.4106 31.9354L35.4103 31.9343L35.4099 31.9331L35.4096 31.932L35.4093 31.9309L35.409 31.9298L35.4087 31.9286L35.4083 31.9275L35.408 31.9264L35.4077 31.9252L35.4074 31.9241L35.4071 31.923L35.4067 31.9219L35.4064 31.9207L35.4061 31.9196L35.4058 31.9185L35.4054 31.9174L35.4051 31.9162L35.4048 31.9151L35.4045 31.914L35.4042 31.9128L35.4038 31.9117L35.4035 31.9106L35.4032 31.9095L35.4029 31.9083L35.4026 31.9072L35.4022 31.9061L35.4019 31.905L35.4016 31.9038L35.4013 31.9027L35.4009 31.9016L35.4006 31.9005L35.4003 31.8993L35.4 31.8982L35.3997 31.8971L35.3993 31.8959L35.399 31.8948L35.3987 31.8937L35.3984 31.8926L35.398 31.8914L35.3977 31.8903L35.3974 31.8892L35.3971 31.8881L35.3968 31.8869L35.3964 31.8858L35.3961 31.8847L35.3958 31.8836L35.3955 31.8824L35.3952 31.8813L35.3948 31.8802L35.3945 31.879L35.3942 31.8779L35.3939 31.8768L35.3935 31.8757L35.3932 31.8745L35.3929 31.8734L35.3926 31.8723L35.3923 31.8712L35.3919 31.87L35.3916 31.8689L35.3913 31.8678L35.391 31.8666L35.3907 31.8655L35.3903 31.8644L35.39 31.8633L35.3897 31.8621L35.3894 31.861L35.389 31.8599L35.3887 31.8588L35.3884 31.8576L35.3881 31.8565L35.3878 31.8554L35.3874 31.8543L35.3871 31.8531L35.3868 31.852L35.3865 31.8509L35.3861 31.8497L35.3858 31.8486L35.3855 31.8475L35.3852 31.8464L35.3849 31.8452L35.3845 31.8441L35.3842 31.843L35.3839 31.8419L35.3836 31.8407L35.3833 31.8396L35.3829 31.8385L35.3826 31.8373L35.3823 31.8362L35.382 31.8351L35.3816 31.834L35.3813 31.8328L35.381 31.8317L35.3807 31.8306L35.3804 31.8295L35.38 31.8283L35.3797 31.8272L35.3794 31.8261L35.3791 31.825L35.3788 31.8238L35.3784 31.8227L35.3781 31.8216L35.3778 31.8204L35.3775 31.8193L35.3771 31.8182L35.3768 31.8171L35.3765 31.8159L35.3762 31.8148L35.3759 31.8137L35.3755 31.8126L35.3752 31.8114L35.3749 31.8103L35.3746 31.8092L35.3742 31.8081L35.3739 31.8069L35.3736 31.8058L35.3733 31.8047L35.373 31.8035L35.3726 31.8024L35.3723 31.8013L35.372 31.8002L35.3717 31.799L35.3714 31.7979L35.371 31.7968L35.3707 31.7957L35.3704 31.7945L35.3701 31.7934L35.3697 31.7923L35.3694 31.7911L35.3691 31.79L35.3688 31.7889L35.3685 31.7878L35.3681 31.7866L35.3678 31.7855L35.3675 31.7844L35.3672 31.7833L35.3669 31.7821L35.3665 31.781L35.3662 31.7799L35.3659 31.7788L35.3656 31.7776L35.3652 31.7765L35.3649 31.7754L35.3646 31.7742L35.3643 31.7731L35.364 31.772L35.3636 31.7709L35.3633 31.7697L35.363 31.7686L35.3627 31.7675L35.3623 31.7664L35.362 31.7652L35.3617 31.7641L35.3614 31.763L35.3611 31.7618L35.3607 31.7607L35.3604 31.7596L35.3601 31.7585L35.3598 31.7573L35.3595 31.7562L35.3591 31.7551L35.3588 31.754L35.3585 31.7528L35.3582 31.7517L35.3578 31.7506L35.3575 31.7495L35.3572 31.7483L35.3569 31.7472L35.3566 31.7461L35.3562 31.7449L35.3559 31.7438L35.3556 31.7427L35.3553 31.7416L35.355 31.7404L35.3546 31.7393L35.3543 31.7382L35.354 31.7371L35.3537 31.7359L35.3533 31.7348L35.353 31.7337L35.3527 31.7326L35.3524 31.7314L35.3521 31.7303L35.3517 31.7292L35.3514 31.728L35.3511 31.7269L35.3508 31.7258L35.3504 31.7247L35.3501 31.7235L35.3498 31.7224L35.3495 31.7213L35.3492 31.7202L35.3488 31.719L35.3485 31.7179L35.3482 31.7168L35.3479 31.7156L35.3476 31.7145L35.3472 31.7134L35.3469 31.7123L35.3466 31.7111L35.3463 31.71L35.3459 31.7089L35.3456 31.7078L35.3453 31.7066L35.345 31.7055L35.3447 31.7044L35.3443 31.7033L35.344 31.7021L35.3437 31.701L35.3434 31.6999L35.3431 31.6987L35.3427 31.6976L35.3424 31.6965L35.3421 31.6954L35.3418 31.6942L35.3414 31.6931L35.3411 31.692L35.3408 31.6909L35.3405 31.6897L35.3402 31.6886L35.3398 31.6875L35.3395 31.6863L35.3392 31.6852L35.3389 31.6841L35.3385 31.683L35.3382 31.6818L35.3379 31.6807L35.3376 31.6796L35.3373 31.6785L35.3369 31.6773L35.3366 31.6762L35.3363 31.6751L35.336 31.674L35.3357 31.6728L35.3353 31.6717L35.335 31.6706L35.3347 31.6694L35.3344 31.6683L35.334 31.6672L35.3337 31.6661L35.3334 31.6649L35.3331 31.6638L35.3328 31.6627L35.3324 31.6616L35.3321 31.6604L35.3318 31.6593L35.3315 31.6582L35.3312 31.657L35.3308 31.6559L35.3305 31.6548L35.3302 31.6537L35.3299 31.6525L35.3295 31.6514L35.3292 31.6503L35.3289 31.6492L35.3286 31.648L35.3283 31.6469L35.3279 31.6458L35.3276 31.6447L35.3273 31.6435L35.327 31.6424L35.3266 31.6413L35.3263 31.6401L35.326 31.639L35.3257 31.6379L35.3254 31.6368L35.325 31.6356L35.3247 31.6345L35.3244 31.6334L35.3241 31.6323L35.3238 31.6311L35.3234 31.63L35.3231 31.6289L35.3228 31.6278L35.3225 31.6266L35.3221 31.6255L35.3218 31.6244L35.3215 31.6232L35.3212 31.6221L35.3209 31.621L35.3205 31.6199L35.3202 31.6187L35.3199 31.6176L35.3196 31.6165L35.3193 31.6154L35.3189 31.6142L35.3186 31.6131L35.3183 31.612L35.318 31.6108L35.3176 31.6097L35.3173 31.6086L35.317 31.6075L35.3167 31.6063L35.3164 31.6052L35.316 31.6041L35.3157 31.603L35.3154 31.6018L35.3151 31.6007L35.3147 31.5996L35.3144 31.5985L35.3141 31.5973L35.3138 31.5962L35.3135 31.5951L35.3131 31.5939L35.3128 31.5928L35.3125 31.5917L35.3122 31.5906L35.3119 31.5894L35.3115 31.5883L35.3112 31.5872L35.3109 31.5861L35.3106 31.5849L35.3102 31.5838L35.3099 31.5827L35.3096 31.5815L35.3093 31.5804L35.309 31.5793L35.3086 31.5782L35.3083 31.577L35.308 31.5759L35.3077 31.5748L35.3074 31.5737L35.307 31.5725L35.3067 31.5714L35.3064 31.5703L35.3061 31.5692L35.3057 31.568L35.3054 31.5669L35.3051 31.5658L35.3048 31.5646L35.3045 31.5635L35.3041 31.5624L35.3038 31.5613L35.3035 31.5601L35.3032 31.559L35.3029 31.5579L35.3025 31.5568L35.3022 31.5556L35.3019 31.5545L35.3016 31.5534C35.2025 31.2062 34.9438 30.9039 34.6117 30.7648L34.6098 30.764C34.2878 30.6354 33.958 30.5026 33.6281 30.3696L33.6264 30.369C33.2968 30.2362 32.967 30.1033 32.6448 29.9746M36.8111 34.6911C36.8133 34.6913 36.8154 34.6916 36.8175 34.6918L36.8047 34.8161M36.8111 34.6911C36.8089 34.6911 36.8066 34.6911 36.8044 34.6911L36.8047 34.8161M32.6448 29.9746C32.2121 29.7804 31.7443 29.8593 31.3703 30.1347M32.6448 29.9746C32.6457 29.975 32.6466 29.9754 32.6474 29.9758L32.596 30.0897M32.6448 29.9746C32.644 29.9743 32.6432 29.974 32.6423 29.9736L32.596 30.0897M31.3703 30.1347L30.5536 30.6788L29.7451 31.2175M31.3703 30.1347L31.3728 30.133L31.4421 30.2371M31.3703 30.1347C31.3695 30.1353 31.3686 30.1359 31.3678 30.1366L31.4421 30.2371M29.7451 31.2175C29.7313 31.2239 29.7204 31.2312 29.7125 31.237C29.7017 31.245 29.6922 31.2537 29.6876 31.2579L29.6881 31.2576L29.7042 31.253C29.6905 31.2569 29.6824 31.2629 29.6811 31.2638C29.6809 31.264 29.6808 31.2641 29.6808 31.2641C29.6808 31.2641 29.6821 31.263 29.6867 31.2588L29.6876 31.258L29.6738 31.2663C29.3065 31.4886 29.0841 31.578 28.8891 31.5622C28.6976 31.5467 28.5006 31.4263 28.1951 31.1257L28.1945 31.1251C27.5129 30.4637 26.8558 29.796 26.2161 29.0977M29.7451 31.2175C29.7524 31.2141 29.7606 31.2109 29.7695 31.2084L29.8038 31.3286M29.7451 31.2175L29.7345 31.2246L29.8038 31.3286M26.2161 29.0977C26.0306 28.8871 25.9474 28.7278 25.9345 28.5745C25.9216 28.4213 25.9768 28.2472 26.1328 28.0018C26.1556 27.9659 26.1785 27.9298 26.2016 27.8935C26.5062 27.4136 26.8378 26.8914 27.2013 26.4047M26.2161 29.0977C26.2164 29.098 26.2166 29.0984 26.2169 29.0987L26.1231 29.1813M26.2161 29.0977C26.2158 29.0975 26.2156 29.0972 26.2153 29.0969L26.1231 29.1813M27.2013 26.4047C27.6152 25.8934 27.6896 25.1728 27.3838 24.5871M27.2013 26.4047C27.2007 26.4054 27.2002 26.406 27.1997 26.4067L27.1026 26.3279M27.2013 26.4047C27.2018 26.4041 27.2023 26.4034 27.2028 26.4027L27.1026 26.3279M27.3838 24.5871C27.2441 24.2785 27.1104 23.9681 26.9761 23.6565L26.9758 23.656C26.8418 23.3449 26.7072 23.0327 26.5666 22.7221M27.3838 24.5871C27.3843 24.5881 27.3848 24.5892 27.3852 24.5903L27.2714 24.6419M27.3838 24.5871C27.3832 24.586 27.3826 24.5849 27.382 24.5838L27.2714 24.6419M26.5666 22.7221C26.4442 22.4019 26.1728 22.1811 25.8563 22.1217C25.5278 22.06 25.1975 21.9923 24.8659 21.9243L24.8655 21.9242C24.5345 21.8564 24.2022 21.7883 23.8715 21.7262C23.4384 21.6448 23.0722 21.5622 22.7903 21.2388M26.5666 22.7221C26.5671 22.7233 26.5676 22.7246 26.5681 22.7259L26.4512 22.7701M26.5666 22.7221C26.5661 22.7209 26.5656 22.7197 26.565 22.7185L26.4512 22.7701M22.7903 21.2388L22.7086 20.9524L22.6854 20.8711M22.7903 21.2388L22.7978 21.265L22.6776 21.2993M22.7903 21.2388C22.7847 21.2323 22.7791 21.2258 22.7735 21.2191L22.6776 21.2993M22.6854 20.8711L22.6179 18.8281M22.6854 20.8711L22.6883 20.9582L22.6893 20.9895L22.5901 20.9927L22.6227 21.1069L22.6776 21.2993M22.6179 18.8281C22.6179 18.7622 22.6177 18.6958 22.6175 18.6291C22.6166 18.3249 22.6156 18.0147 22.6351 17.7154L22.6354 17.7154L22.6354 17.7064C22.6324 17.2948 22.9146 16.9191 23.3181 16.8266L23.319 16.8264C23.85 16.7006 24.3883 16.5984 24.9299 16.4958M22.6179 18.8281C22.6179 18.8288 22.6179 18.8295 22.6179 18.8302L22.4929 18.8301L22.6178 18.826L22.6179 18.8281ZM24.9299 16.4958C25.2437 16.4597 25.5411 16.3743 25.8276 16.2661L25.8276 16.2661L25.8308 16.2648C26.0595 16.1711 26.2529 16.0295 26.396 15.813L26.4008 15.8058L26.4045 15.798C26.7805 15.0122 27.1251 14.2097 27.4624 13.3844L27.4626 13.3845L27.4648 13.3779C27.5768 13.054 27.5251 12.6623 27.3299 12.3907M24.9299 16.4958C24.9283 16.4959 24.9268 16.4961 24.9252 16.4963L24.9111 16.3721L24.9344 16.4949C24.9329 16.4952 24.9314 16.4955 24.9299 16.4958ZM27.3299 12.3907C27.2051 12.1989 27.0786 12.0091 26.9525 11.82C26.701 11.443 26.4514 11.0688 26.2218 10.6866L26.2218 10.6865L26.2199 10.6835C26.0853 10.4733 25.9662 10.2323 25.8763 10.0068M27.3299 12.3907C27.3304 12.3916 27.331 12.3924 27.3315 12.3933L27.2267 12.4614L27.328 12.3881C27.3286 12.389 27.3293 12.3898 27.3299 12.3907ZM25.8763 10.0068C25.8337 9.85251 25.8517 9.70152 25.9358 9.54723M25.8763 10.0068C25.8768 10.0087 25.8773 10.0106 25.8779 10.0126L25.7577 10.0469L25.8739 10.0008C25.8747 10.0028 25.8755 10.0048 25.8763 10.0068ZM25.9358 9.54723C26.6349 8.57856 27.4932 7.7178 28.4464 7.00924L28.4465 7.00934L28.4507 7.00589C28.7034 6.80037 29.0517 6.79095 29.3025 6.9813L29.3023 6.98154L29.3095 6.98626C29.5113 7.11863 29.71 7.24472 29.9067 7.36953C30.3079 7.62408 30.7006 7.87328 31.0943 8.15944M25.9358 9.54723C25.9343 9.54927 25.9328 9.55132 25.9314 9.55336L25.83 9.48028L25.9392 9.54102C25.9381 9.54309 25.9369 9.54516 25.9358 9.54723ZM31.0943 8.15944C31.5359 8.51363 32.1531 8.59255 32.6745 8.33065M31.0943 8.15944C31.0935 8.15878 31.0926 8.15812 31.0918 8.15746L31.1702 8.06011L31.0967 8.16121C31.0959 8.16062 31.0951 8.16003 31.0943 8.15944ZM32.6745 8.33065C33.3327 8.01382 34.005 7.74437 34.6819 7.47316L34.682 7.4735L34.6906 7.46925C34.9708 7.3312 35.1746 7.09598 35.2351 6.77905M32.6745 8.33065C32.6742 8.33081 32.6739 8.33096 32.6736 8.33111L32.6194 8.21849L32.6756 8.33015C32.6752 8.33032 32.6749 8.33049 32.6745 8.33065ZM35.2351 6.77905C35.3417 6.33262 35.4413 5.86254 35.5239 5.42299M35.2351 6.77905C35.2349 6.78 35.2347 6.78095 35.2344 6.7819L35.1129 6.75287L35.2357 6.77594C35.2355 6.77698 35.2353 6.77802 35.2351 6.77905ZM35.5239 5.42299C35.5721 5.22677 35.6143 5.0325 35.6561 4.84012L35.6562 4.8393C35.6984 4.64503 35.7402 4.45268 35.7878 4.25888L35.788 4.25893L35.7893 4.2521C35.8512 3.92243 36.1319 3.66896 36.4843 3.67772L36.4843 3.67798L36.4922 3.67767C37.5447 3.63683 38.6275 3.61315 39.6928 3.62028M35.5239 5.42299C35.5236 5.42412 35.5234 5.42524 35.5231 5.42637L35.4017 5.39652L35.5246 5.41959C35.5243 5.42072 35.5241 5.42186 35.5239 5.42299ZM39.6928 3.62028C40.0578 3.62983 40.3684 3.8769 40.4262 4.23327L40.4274 4.24051L40.4294 4.24755C40.5399 4.63448 40.6144 5.04371 40.6909 5.46342C40.7176 5.60977 40.7445 5.7574 40.7732 5.9058M39.6928 3.62028C39.6924 3.62027 39.692 3.62026 39.6917 3.62025L39.6948 3.49529L39.6939 3.62029C39.6935 3.62029 39.6931 3.62028 39.6928 3.62028ZM40.7732 5.9058C40.7732 5.90588 40.7733 5.90596 40.7733 5.90604L40.896 5.88227L40.7732 5.90555C40.7732 5.90563 40.7732 5.90572 40.7732 5.9058ZM22.6776 21.2993C22.9934 21.6771 23.4089 21.7665 23.8484 21.849C24.1781 21.9109 24.5095 21.9789 24.8408 22.0468C25.1722 22.1147 25.5035 22.1826 25.8332 22.2445C26.1079 22.2961 26.3448 22.4885 26.4512 22.7701M26.4512 22.7701C26.5919 23.0809 26.7266 23.3934 26.8613 23.706C26.996 24.0185 27.1307 24.331 27.2714 24.6419M27.2714 24.6419C27.5562 25.1845 27.4874 25.8541 27.1026 26.3279M27.1026 26.3279C26.7356 26.8192 26.4011 27.346 26.0965 27.8258C26.0733 27.8624 26.0502 27.8987 26.0273 27.9347C25.7044 28.4429 25.7386 28.7451 26.1231 29.1813M26.1231 29.1813C26.7651 29.882 27.4242 30.5518 28.1074 31.2148C28.7219 31.8194 29.0069 31.816 29.7385 31.3732C29.7505 31.3698 29.7608 31.3604 29.7711 31.3509C29.7814 31.3415 29.7918 31.332 29.8038 31.3286M29.8038 31.3286L31.4421 30.2371M31.4421 30.2371C31.7856 29.983 32.208 29.9145 32.596 30.0897M32.596 30.0897C32.9187 30.2186 33.2492 30.3517 33.5797 30.4849C33.9102 30.6181 34.2407 30.7512 34.5634 30.8801C34.8587 31.0038 35.0922 31.2752 35.1814 31.5877L35.346 32.1646L35.737 34.0809C35.8021 34.4003 36.0596 34.6648 36.4133 34.7199C36.53 34.7645 36.6708 34.8023 36.8047 34.8161M36.8047 34.8161C37.3113 34.8145 37.8238 34.8113 38.3363 34.808C38.8488 34.8047 39.3614 34.8014 39.8679 34.7998M39.8679 34.7998C40.1529 34.7965 40.3899 34.6248 40.4964 34.3604C40.627 34.0892 40.7026 33.8076 40.7783 33.5261M40.7783 33.5261C40.8631 33.1552 40.9265 32.7905 40.9899 32.4257C41.0217 32.2433 41.0534 32.061 41.0878 31.8778M41.0878 31.8778C41.1635 31.4142 41.4726 31.04 41.8916 30.8684M41.8916 30.8684C42.1106 30.7645 42.3382 30.6655 42.5689 30.5651C42.7725 30.4765 42.9785 30.3868 43.183 30.2919C44.2889 29.7943 44.5018 29.8115 45.5009 30.4883M35.6949 12.9823L35.6948 12.9819L35.6849 12.9856C32.8361 14.064 30.5524 17.7609 31.9804 21.4637L31.9805 21.4639C33.2852 24.8281 37.027 26.5163 40.4292 25.2538L40.4294 25.2538C44.3794 23.7821 45.4516 19.4527 44.2432 16.793C42.9553 13.4016 39.1556 11.6799 35.762 12.9632L35.7619 12.9632L35.7618 12.9632L35.7616 12.9633L35.7615 12.9633L35.7614 12.9634L35.7612 12.9634L35.7611 12.9634L35.7609 12.9635L35.7608 12.9635L35.7607 12.9636L35.7605 12.9636L35.7604 12.9636L35.7602 12.9637L35.7601 12.9637L35.76 12.9638L35.7598 12.9638L35.7597 12.9638L35.7595 12.9639L35.7594 12.9639L35.7593 12.964L35.7591 12.964L35.759 12.964L35.7588 12.9641L35.7587 12.9641L35.7586 12.9642L35.7584 12.9642L35.7583 12.9642L35.7581 12.9643L35.758 12.9643L35.7578 12.9644L35.7577 12.9644L35.7576 12.9644L35.7574 12.9645L35.7573 12.9645L35.7571 12.9646L35.757 12.9646L35.7569 12.9646L35.7567 12.9647L35.7566 12.9647L35.7564 12.9648L35.7563 12.9648L35.7562 12.9648L35.756 12.9649L35.7559 12.9649L35.7557 12.965L35.7556 12.965L35.7555 12.9651L35.7553 12.9651L35.7552 12.9651L35.755 12.9652L35.7549 12.9652L35.7547 12.9653L35.7546 12.9653L35.7545 12.9653L35.7543 12.9654L35.7542 12.9654L35.754 12.9655L35.7539 12.9655L35.7538 12.9655L35.7536 12.9656L35.7535 12.9656L35.7533 12.9657L35.7532 12.9657L35.7531 12.9657L35.7529 12.9658L35.7528 12.9658L35.7526 12.9659L35.7525 12.9659L35.7524 12.9659L35.7522 12.966L35.7521 12.966L35.7519 12.9661L35.7518 12.9661L35.7516 12.9661L35.7515 12.9662L35.7514 12.9662L35.7512 12.9663L35.7511 12.9663L35.7509 12.9663L35.7508 12.9664L35.7507 12.9664L35.7505 12.9665L35.7504 12.9665L35.7502 12.9665L35.7501 12.9666L35.75 12.9666L35.7498 12.9667L35.7497 12.9667L35.7495 12.9667L35.7494 12.9668L35.7493 12.9668L35.7491 12.9669L35.749 12.9669L35.7488 12.9669L35.7487 12.967L35.7485 12.967L35.7484 12.9671L35.7483 12.9671L35.7481 12.9671L35.748 12.9672L35.7478 12.9672L35.7477 12.9673L35.7476 12.9673L35.7474 12.9673L35.7473 12.9674L35.7471 12.9674L35.747 12.9675L35.7469 12.9675L35.7467 12.9675L35.7466 12.9676L35.7464 12.9676L35.7463 12.9677L35.7462 12.9677L35.746 12.9677L35.7459 12.9678L35.7457 12.9678L35.7456 12.9679L35.7454 12.9679L35.7453 12.9679L35.7452 12.968L35.745 12.968L35.7449 12.9681L35.7447 12.9681L35.7446 12.9681L35.7445 12.9682L35.7443 12.9682L35.7442 12.9683L35.744 12.9683L35.7439 12.9683L35.7438 12.9684L35.7436 12.9684L35.7435 12.9685L35.7433 12.9685L35.7432 12.9685L35.7431 12.9686L35.7429 12.9686L35.7428 12.9687L35.7426 12.9687L35.7425 12.9687L35.7424 12.9688L35.7422 12.9688L35.7421 12.9689L35.7419 12.9689L35.7418 12.969L35.7416 12.969L35.7415 12.969L35.7414 12.9691L35.7412 12.9691L35.7411 12.9692L35.7409 12.9692L35.7408 12.9692L35.7407 12.9693L35.7405 12.9693L35.7404 12.9694L35.7402 12.9694L35.7401 12.9694L35.74 12.9695L35.7398 12.9695L35.7397 12.9696L35.7395 12.9696L35.7394 12.9696L35.7393 12.9697L35.7391 12.9697L35.739 12.9698L35.7388 12.9698L35.7387 12.9698L35.7385 12.9699L35.7384 12.9699L35.7383 12.97L35.7381 12.97L35.738 12.97L35.7378 12.9701L35.7377 12.9701L35.7376 12.9702L35.7374 12.9702L35.7373 12.9702L35.7371 12.9703L35.737 12.9703L35.7369 12.9704L35.7367 12.9704L35.7366 12.9704L35.7364 12.9705L35.7363 12.9705L35.7362 12.9706L35.736 12.9706L35.7359 12.9706L35.7357 12.9707L35.7356 12.9707L35.7354 12.9708L35.7353 12.9708L35.7352 12.9708L35.735 12.9709L35.7349 12.9709L35.7347 12.971L35.7346 12.971L35.7345 12.971L35.7343 12.9711L35.7342 12.9711L35.734 12.9712L35.7339 12.9712L35.7338 12.9712L35.7336 12.9713L35.7335 12.9713L35.7333 12.9714L35.7332 12.9714L35.7331 12.9714L35.7329 12.9715L35.7328 12.9715L35.7326 12.9716L35.7325 12.9716L35.7323 12.9716L35.7322 12.9717L35.7321 12.9717L35.7319 12.9718L35.7318 12.9718L35.7316 12.9718L35.7315 12.9719L35.7314 12.9719L35.7312 12.972L35.7311 12.972L35.7309 12.972L35.7308 12.9721L35.7307 12.9721L35.7305 12.9722L35.7304 12.9722L35.7302 12.9722L35.7301 12.9723L35.73 12.9723L35.7298 12.9724L35.7297 12.9724L35.7295 12.9724L35.7294 12.9725L35.7293 12.9725L35.7291 12.9726L35.729 12.9726L35.7288 12.9726L35.7287 12.9727L35.7285 12.9727L35.7284 12.9728L35.7283 12.9728L35.7281 12.9729L35.728 12.9729L35.7278 12.9729L35.7277 12.973L35.7276 12.973L35.7274 12.9731L35.7273 12.9731L35.7271 12.9731L35.727 12.9732L35.7269 12.9732L35.7267 12.9733L35.7266 12.9733L35.7264 12.9733L35.7263 12.9734L35.7262 12.9734L35.726 12.9735L35.7259 12.9735L35.7257 12.9735L35.7256 12.9736L35.7254 12.9736L35.7253 12.9737L35.7252 12.9737L35.725 12.9737L35.7249 12.9738L35.7247 12.9738L35.7246 12.9739L35.7245 12.9739L35.7243 12.9739L35.7242 12.974L35.724 12.974L35.7239 12.9741L35.7238 12.9741L35.7236 12.9741L35.7235 12.9742L35.7233 12.9742L35.7232 12.9743L35.7231 12.9743L35.7229 12.9743L35.7228 12.9744L35.7226 12.9744L35.7225 12.9745L35.7223 12.9745L35.7222 12.9745L35.7221 12.9746L35.7219 12.9746L35.7218 12.9747L35.7216 12.9747L35.7215 12.9747L35.7214 12.9748L35.7212 12.9748L35.7211 12.9749L35.7209 12.9749L35.7208 12.9749L35.7207 12.975L35.7205 12.975L35.7204 12.9751L35.7202 12.9751L35.7201 12.9751L35.72 12.9752L35.7198 12.9752L35.7197 12.9753L35.7195 12.9753L35.7194 12.9753L35.7192 12.9754L35.7191 12.9754L35.719 12.9755L35.7188 12.9755L35.7187 12.9755L35.7185 12.9756L35.7184 12.9756L35.7183 12.9757L35.7181 12.9757L35.718 12.9757L35.7178 12.9758L35.7177 12.9758L35.7176 12.9759L35.7174 12.9759L35.7173 12.9759L35.7171 12.976L35.717 12.976L35.7169 12.9761L35.7167 12.9761L35.7166 12.9761L35.7164 12.9762L35.7163 12.9762L35.7161 12.9763L35.716 12.9763L35.7159 12.9763L35.7157 12.9764L35.7156 12.9764L35.7154 12.9765L35.7153 12.9765L35.7152 12.9765L35.715 12.9766L35.7149 12.9766L35.7147 12.9767L35.7146 12.9767L35.7145 12.9768L35.7143 12.9768L35.7142 12.9768L35.714 12.9769L35.7139 12.9769L35.7138 12.977L35.7136 12.977L35.7135 12.977L35.7133 12.9771L35.7132 12.9771L35.713 12.9772L35.7129 12.9772L35.7128 12.9772L35.7126 12.9773L35.7125 12.9773L35.7123 12.9774L35.7122 12.9774L35.7121 12.9774L35.7119 12.9775L35.7118 12.9775L35.7116 12.9776L35.7115 12.9776L35.7114 12.9776L35.7112 12.9777L35.7111 12.9777L35.7109 12.9778L35.7108 12.9778L35.7107 12.9778L35.7105 12.9779L35.7104 12.9779L35.7102 12.978L35.7101 12.978L35.71 12.978L35.7098 12.9781L35.7097 12.9781L35.7095 12.9782L35.7094 12.9782L35.7092 12.9782L35.7091 12.9783L35.709 12.9783L35.7088 12.9784L35.7087 12.9784L35.7085 12.9784L35.7084 12.9785L35.7083 12.9785L35.7081 12.9786L35.708 12.9786L35.7078 12.9786L35.7077 12.9787L35.7076 12.9787L35.7074 12.9788L35.7073 12.9788L35.7071 12.9788L35.707 12.9789L35.7069 12.9789L35.7067 12.979L35.7066 12.979L35.7064 12.979L35.7063 12.9791L35.7061 12.9791L35.706 12.9792L35.7059 12.9792L35.7057 12.9792L35.7056 12.9793L35.7054 12.9793L35.7053 12.9794L35.7052 12.9794L35.705 12.9794L35.7049 12.9795L35.7047 12.9795L35.7046 12.9796L35.7045 12.9796L35.7043 12.9796L35.7042 12.9797L35.704 12.9797L35.7039 12.9798L35.7038 12.9798L35.7036 12.9798L35.7035 12.9799L35.7033 12.9799L35.7032 12.98L35.703 12.98L35.7029 12.98L35.7028 12.9801L35.7026 12.9801L35.7025 12.9802L35.7023 12.9802L35.7022 12.9802L35.7021 12.9803L35.7019 12.9803L35.7018 12.9804L35.7016 12.9804L35.7015 12.9804L35.7014 12.9805L35.7012 12.9805L35.7011 12.9806L35.7009 12.9806L35.7008 12.9807L35.7007 12.9807L35.7005 12.9807L35.7004 12.9808L35.7002 12.9808L35.7001 12.9809L35.6999 12.9809L35.6998 12.9809L35.6997 12.981L35.6995 12.981L35.6994 12.9811L35.6992 12.9811L35.6991 12.9811L35.699 12.9812L35.6988 12.9812L35.6987 12.9813L35.6985 12.9813L35.6984 12.9813L35.6983 12.9814L35.6981 12.9814L35.698 12.9815L35.6978 12.9815L35.6977 12.9815L35.6976 12.9816L35.6974 12.9816L35.6973 12.9817L35.6971 12.9817L35.697 12.9817L35.6968 12.9818L35.6967 12.9818L35.6966 12.9819L35.6964 12.9819L35.6963 12.9819L35.6961 12.982L35.696 12.982L35.6959 12.9821L35.6957 12.9821L35.6956 12.9821L35.6954 12.9822L35.6953 12.9822L35.6952 12.9823L35.695 12.9823L35.6949 12.9823Z" fill="#111111" stroke="#111111" stroke-width="0.25"/>
<path d="M22.1125 67.3497L22.1118 67.3487C19.6569 63.6203 16.0936 61.2807 11.5838 60.2325C8.58643 59.5349 5.93797 58.2379 3.94446 55.9822C1.98004 53.7527 0.820297 51.4303 0.414703 49.0022C0.00904552 46.5737 0.354658 44.0209 1.43077 41.3261L1.43082 41.3261L1.43248 41.3217C1.54784 41.0162 1.80201 40.8247 2.05141 40.8247H2.06516L2.07883 40.8232C2.37774 40.7902 2.62141 40.9453 2.77569 41.2517L2.78221 41.2647L2.79018 41.2768L5.20531 44.9447C5.99794 46.1948 6.79041 47.3991 7.5816 48.6007V48.649L7.62404 48.7122C8.35791 49.8054 9.83446 50.1321 10.9041 49.3951L18.5244 44.883L18.525 44.8827C19.1593 44.5047 19.5797 43.9963 19.7237 43.4037C19.8681 42.8099 19.7245 42.1747 19.3162 41.566C18.5343 40.366 17.7407 39.1662 16.9476 37.9672L16.9473 37.9668L16.9471 37.9666C16.1535 36.7668 15.3604 35.5679 14.5793 34.3691L14.5795 34.3689L14.5728 34.3596C14.455 34.1959 14.3734 34.0634 14.3389 33.9349C14.3083 33.8213 14.312 33.7002 14.3985 33.5455C14.4839 33.3929 14.5839 33.3276 14.7018 33.2925C14.8367 33.2523 14.9974 33.25 15.2168 33.25C24.1248 33.6701 30.5724 41.5347 28.5775 49.8775C27.6152 53.6543 28.0971 57.6689 29.9255 61.1567L29.9252 61.1568L29.9311 61.1668C30.786 62.6289 31.6908 64.0481 32.7399 65.4219L39.8425 75.7193C39.8426 75.7194 39.8427 75.7196 39.8427 75.7197C41.3356 77.9081 42.8402 80.0845 44.3443 82.2603L44.3456 82.2621C45.8495 84.4376 47.3529 86.6123 48.8444 88.7987L48.8451 88.7997C50.906 91.7872 52.9551 94.7629 55.0042 97.7387L55.0184 97.7593C57.0626 100.728 59.1068 103.697 61.1629 106.677C62.82 109.122 64.4295 111.519 66.0388 113.963C66.6212 114.899 66.8475 116.016 66.7118 117.139L66.7113 117.143C66.438 119.812 64.48 122.027 61.7936 122.57L61.7936 122.569L61.7849 122.572C59.1398 123.206 56.358 122.119 54.8524 119.81C53.7635 118.071 52.6865 116.343 51.6093 114.615L51.6083 114.614C50.5305 112.885 49.4525 111.155 48.3626 109.414C47.0837 107.368 45.8046 105.31 44.5254 103.252C43.2462 101.194 41.9668 99.1349 40.6874 97.0881C39.1004 94.5476 37.5251 92.0189 35.9498 89.4901C34.3744 86.9613 32.799 84.4323 31.2117 81.8916L31.2116 81.8914C30.2027 80.2789 29.2033 78.6598 28.2035 77.0399C26.2021 73.7972 24.1987 70.5514 22.1125 67.3497ZM57.4652 118.389L57.4651 118.389L57.4695 118.395C58.5265 119.894 60.5377 120.362 62.0716 119.478C62.1208 119.466 62.1634 119.447 62.1912 119.433C62.2342 119.412 62.2837 119.382 62.3273 119.344C63.8515 118.371 64.2567 116.389 63.2839 114.914C62.2605 113.341 60.1171 112.886 58.5339 113.9L58.5115 113.915L58.4979 113.928C58.4956 113.929 58.4919 113.931 58.4865 113.934L58.4832 113.936C58.4614 113.946 58.4182 113.968 58.3729 114.007C56.8979 114.979 56.4917 116.913 57.4652 118.389Z" fill="#FFEDE6" stroke="#111111" stroke-width="0.5"/>
</svg>
